<svg xmlns="http://www.w3.org/2000/svg" xmlns:xlink="http://www.w3.org/1999/xlink" width="500" zoomAndPan="magnify" viewBox="0 0 375 187.499995" height="250" preserveAspectRatio="xMidYMid meet" version="1.0"><defs><g/><clipPath id="df22eaab08"><path d="M 19 65 L 89 65 L 89 175 L 19 175 Z M 19 65 " clip-rule="nonzero"/></clipPath><clipPath id="89cfc91731"><path d="M 63.363281 186.183594 L -2.625 120.195312 L 70.238281 47.328125 L 136.230469 113.320312 Z M 63.363281 186.183594 " clip-rule="nonzero"/></clipPath><clipPath id="d0e2fc58d8"><path d="M 63.363281 186.183594 L -2.625 120.195312 L 70.238281 47.328125 L 136.230469 113.320312 Z M 63.363281 186.183594 " clip-rule="nonzero"/></clipPath><clipPath id="7b8ef1a80f"><path d="M 49.480469 95.367188 C 48.253906 96.589844 47.128906 97.898438 46.097656 99.292969 C 45.066406 100.683594 44.140625 102.144531 43.328125 103.671875 C 42.511719 105.203125 41.8125 106.785156 41.230469 108.417969 C 40.648438 110.050781 40.191406 111.71875 39.855469 113.417969 C 39.519531 115.121094 39.3125 116.839844 39.230469 118.574219 C 39.148438 120.308594 39.195312 122.039062 39.367188 123.765625 C 39.542969 125.492188 39.84375 127.199219 40.269531 128.886719 C 40.691406 130.570312 41.238281 132.214844 41.90625 133.820312 C 42.574219 135.425781 43.355469 136.972656 44.253906 138.464844 C 45.148438 139.953125 46.148438 141.371094 47.253906 142.714844 C 48.355469 144.0625 49.550781 145.316406 50.839844 146.484375 C 52.128906 147.652344 53.496094 148.722656 54.941406 149.6875 C 56.386719 150.65625 57.898438 151.511719 59.46875 152.257812 C 61.039062 153.003906 62.65625 153.628906 64.316406 154.136719 C 65.980469 154.644531 67.667969 155.027344 69.386719 155.285156 C 71.105469 155.542969 72.832031 155.675781 74.566406 155.675781 L 74.558594 153.121094 C 73.488281 153.117188 72.417969 153.0625 71.351562 152.953125 C 70.28125 152.847656 69.222656 152.6875 68.171875 152.476562 C 67.117188 152.265625 66.078125 152 65.050781 151.6875 C 64.023438 151.375 63.015625 151.011719 62.023438 150.597656 C 61.03125 150.1875 60.0625 149.726562 59.117188 149.21875 C 58.171875 148.710938 57.25 148.15625 56.355469 147.558594 C 55.464844 146.960938 54.601562 146.320312 53.773438 145.640625 C 52.941406 144.957031 52.148438 144.234375 51.386719 143.476562 C 50.628906 142.714844 49.90625 141.921875 49.226562 141.089844 C 48.542969 140.257812 47.902344 139.398438 47.304688 138.503906 C 46.707031 137.609375 46.15625 136.691406 45.648438 135.746094 C 45.140625 134.796875 44.679688 133.828125 44.269531 132.835938 C 43.855469 131.84375 43.492188 130.835938 43.179688 129.808594 C 42.867188 128.78125 42.605469 127.742188 42.394531 126.6875 C 42.183594 125.636719 42.023438 124.578125 41.914062 123.507812 C 41.808594 122.441406 41.753906 121.371094 41.753906 120.300781 C 41.75 119.226562 41.800781 118.15625 41.902344 117.089844 C 42.007812 116.023438 42.160156 114.964844 42.367188 113.914062 C 42.578125 112.859375 42.835938 111.820312 43.144531 110.796875 C 43.453125 109.769531 43.8125 108.761719 44.222656 107.773438 C 44.628906 106.785156 45.085938 105.816406 45.589844 104.871094 C 46.09375 103.925781 46.640625 103.007812 47.234375 102.117188 C 47.832031 101.230469 48.464844 100.371094 49.144531 99.542969 C 49.824219 98.714844 50.542969 97.921875 51.300781 97.167969 C 52.054688 96.410156 52.847656 95.691406 53.675781 95.011719 C 54.503906 94.335938 55.363281 93.699219 56.253906 93.105469 C 57.144531 92.511719 58.0625 91.960938 59.007812 91.460938 C 59.953125 90.957031 60.917969 90.5 61.910156 90.089844 C 62.898438 89.683594 63.90625 89.324219 64.933594 89.015625 C 65.957031 88.707031 66.996094 88.449219 68.046875 88.242188 C 69.101562 88.035156 70.160156 87.878906 71.226562 87.777344 C 72.292969 87.675781 73.363281 87.625 74.4375 87.628906 L 88.882812 87.65625 L 88.875 85.101562 L 74.429688 85.089844 C 72.109375 85.078125 69.8125 85.292969 67.539062 85.734375 C 65.261719 86.179688 63.054688 86.839844 60.914062 87.722656 C 58.773438 88.605469 56.742188 89.691406 54.816406 90.976562 C 52.890625 92.261719 51.113281 93.726562 49.480469 95.367188 Z M 58.558594 104.441406 C 57.777344 105.222656 57.058594 106.058594 56.402344 106.945312 C 55.746094 107.832031 55.15625 108.761719 54.636719 109.734375 C 54.117188 110.710938 53.675781 111.71875 53.304688 112.757812 C 52.933594 113.796875 52.640625 114.859375 52.425781 115.945312 C 52.214844 117.027344 52.082031 118.125 52.03125 119.226562 C 51.976562 120.332031 52.007812 121.433594 52.117188 122.535156 C 52.226562 123.636719 52.417969 124.722656 52.691406 125.796875 C 52.960938 126.871094 53.308594 127.917969 53.734375 128.941406 C 54.160156 129.964844 54.65625 130.949219 55.226562 131.898438 C 55.796875 132.847656 56.433594 133.753906 57.136719 134.609375 C 57.84375 135.464844 58.605469 136.265625 59.425781 137.011719 C 60.246094 137.753906 61.117188 138.433594 62.039062 139.050781 C 62.957031 139.667969 63.917969 140.214844 64.917969 140.6875 C 65.921875 141.164062 66.949219 141.5625 68.007812 141.886719 C 69.066406 142.210938 70.144531 142.453125 71.238281 142.617188 C 72.332031 142.785156 73.433594 142.867188 74.539062 142.871094 L 74.535156 140.308594 C 73.882812 140.308594 73.230469 140.273438 72.578125 140.210938 C 71.929688 140.144531 71.285156 140.046875 70.644531 139.917969 C 70.003906 139.789062 69.371094 139.628906 68.746094 139.441406 C 68.121094 139.25 67.503906 139.027344 66.902344 138.777344 C 66.296875 138.527344 65.707031 138.246094 65.132812 137.9375 C 64.554688 137.628906 63.996094 137.292969 63.449219 136.929688 C 62.90625 136.566406 62.382812 136.175781 61.875 135.761719 C 61.371094 135.34375 60.886719 134.90625 60.425781 134.445312 C 59.960938 133.980469 59.523438 133.496094 59.105469 132.992188 C 58.691406 132.484375 58.300781 131.960938 57.9375 131.417969 C 57.574219 130.875 57.238281 130.3125 56.929688 129.738281 C 56.621094 129.160156 56.339844 128.570312 56.089844 127.96875 C 55.835938 127.363281 55.617188 126.75 55.425781 126.125 C 55.234375 125.5 55.074219 124.867188 54.945312 124.226562 C 54.816406 123.585938 54.722656 122.941406 54.65625 122.289062 C 54.589844 121.640625 54.558594 120.988281 54.554688 120.335938 C 54.554688 119.683594 54.585938 119.03125 54.648438 118.382812 C 54.710938 117.730469 54.804688 117.085938 54.929688 116.445312 C 55.058594 115.808594 55.214844 115.175781 55.402344 114.550781 C 55.589844 113.925781 55.808594 113.3125 56.058594 112.710938 C 56.304688 112.105469 56.585938 111.519531 56.890625 110.941406 C 57.199219 110.367188 57.53125 109.808594 57.894531 109.265625 C 58.253906 108.726562 58.644531 108.203125 59.054688 107.699219 C 59.46875 107.195312 59.90625 106.714844 60.367188 106.253906 C 60.828125 105.792969 61.308594 105.355469 61.8125 104.941406 C 62.316406 104.527344 62.839844 104.140625 63.382812 103.78125 C 63.925781 103.417969 64.484375 103.085938 65.058594 102.777344 C 65.636719 102.472656 66.222656 102.195312 66.828125 101.945312 C 67.429688 101.699219 68.042969 101.480469 68.667969 101.292969 C 69.292969 101.105469 69.925781 100.945312 70.5625 100.820312 C 71.203125 100.695312 71.847656 100.601562 72.5 100.539062 C 73.148438 100.476562 73.800781 100.445312 74.453125 100.449219 L 88.921875 100.476562 L 88.914062 97.917969 L 74.445312 97.890625 C 72.96875 97.882812 71.503906 98.019531 70.058594 98.304688 C 68.609375 98.585938 67.203125 99.011719 65.839844 99.574219 C 64.476562 100.136719 63.179688 100.824219 61.957031 101.644531 C 60.730469 102.464844 59.597656 103.398438 58.558594 104.441406 Z M 54.011719 99.894531 C 53.007812 100.898438 52.085938 101.96875 51.242188 103.109375 C 50.402344 104.25 49.644531 105.441406 48.980469 106.695312 C 48.3125 107.945312 47.742188 109.238281 47.265625 110.574219 C 46.789062 111.914062 46.417969 113.277344 46.140625 114.667969 C 45.867188 116.0625 45.699219 117.46875 45.632812 118.886719 C 45.566406 120.304688 45.601562 121.71875 45.746094 123.132812 C 45.886719 124.546875 46.132812 125.941406 46.480469 127.320312 C 46.828125 128.699219 47.273438 130.046875 47.820312 131.359375 C 48.367188 132.671875 49.003906 133.9375 49.738281 135.160156 C 50.46875 136.378906 51.289062 137.539062 52.191406 138.636719 C 53.09375 139.738281 54.074219 140.765625 55.125 141.722656 C 56.179688 142.679688 57.296875 143.554688 58.480469 144.34375 C 59.664062 145.136719 60.894531 145.839844 62.179688 146.449219 C 63.464844 147.058594 64.789062 147.574219 66.148438 147.988281 C 67.507812 148.40625 68.890625 148.71875 70.296875 148.929688 C 71.699219 149.144531 73.113281 149.25 74.535156 149.253906 L 74.546875 146.714844 C 73.699219 146.691406 72.851562 146.628906 72.007812 146.523438 C 71.164062 146.417969 70.328125 146.273438 69.5 146.089844 C 68.671875 145.902344 67.851562 145.679688 67.042969 145.414062 C 66.234375 145.148438 65.441406 144.847656 64.664062 144.503906 C 63.882812 144.164062 63.121094 143.785156 62.378906 143.371094 C 61.636719 142.957031 60.914062 142.507812 60.214844 142.023438 C 59.515625 141.539062 58.839844 141.023438 58.191406 140.472656 C 57.542969 139.925781 56.917969 139.34375 56.324219 138.734375 C 55.730469 138.125 55.167969 137.492188 54.632812 136.828125 C 54.101562 136.164062 53.601562 135.476562 53.132812 134.765625 C 52.667969 134.054688 52.238281 133.320312 51.839844 132.570312 C 51.445312 131.816406 51.085938 131.046875 50.765625 130.257812 C 50.441406 129.472656 50.160156 128.671875 49.914062 127.855469 C 49.671875 127.042969 49.464844 126.21875 49.300781 125.382812 C 49.136719 124.550781 49.011719 123.710938 48.929688 122.867188 C 48.84375 122.019531 48.800781 121.171875 48.800781 120.324219 C 48.796875 119.472656 48.835938 118.628906 48.917969 117.78125 C 48.996094 116.9375 49.117188 116.097656 49.28125 115.265625 C 49.441406 114.433594 49.644531 113.609375 49.882812 112.796875 C 50.125 111.980469 50.40625 111.183594 50.722656 110.398438 C 51.042969 109.609375 51.398438 108.84375 51.789062 108.089844 C 52.183594 107.339844 52.613281 106.609375 53.074219 105.898438 C 53.539062 105.191406 54.035156 104.503906 54.566406 103.84375 C 55.097656 103.183594 55.65625 102.550781 56.25 101.941406 C 56.839844 101.335938 57.460938 100.757812 58.109375 100.214844 C 58.757812 99.667969 59.429688 99.152344 60.128906 98.671875 C 60.824219 98.191406 61.542969 97.746094 62.285156 97.332031 C 63.027344 96.921875 63.785156 96.546875 64.5625 96.210938 C 65.339844 95.871094 66.132812 95.570312 66.941406 95.3125 C 67.75 95.050781 68.566406 94.828125 69.394531 94.648438 C 70.222656 94.464844 71.058594 94.324219 71.902344 94.222656 C 72.746094 94.121094 73.589844 94.0625 74.441406 94.042969 L 88.898438 94.074219 L 88.890625 91.515625 L 74.433594 91.484375 C 72.535156 91.476562 70.65625 91.652344 68.792969 92.015625 C 66.933594 92.382812 65.125 92.925781 63.375 93.648438 C 61.621094 94.371094 59.960938 95.257812 58.386719 96.3125 C 56.8125 97.363281 55.355469 98.5625 54.019531 99.90625 Z M 40.394531 86.277344 C 39.28125 87.390625 38.226562 88.554688 37.230469 89.769531 C 36.234375 90.984375 35.300781 92.25 34.429688 93.554688 C 33.554688 94.863281 32.75 96.210938 32.011719 97.601562 C 31.269531 98.988281 30.601562 100.410156 30.003906 101.863281 C 29.402344 103.320312 28.875 104.800781 28.421875 106.304688 C 27.96875 107.8125 27.589844 109.339844 27.285156 110.882812 C 26.984375 112.429688 26.753906 113.984375 26.605469 115.550781 C 26.453125 117.121094 26.378906 118.691406 26.382812 120.265625 C 26.386719 121.84375 26.46875 123.414062 26.628906 124.984375 C 26.785156 126.550781 27.019531 128.109375 27.332031 129.65625 C 27.640625 131.203125 28.027344 132.730469 28.488281 134.238281 C 28.949219 135.746094 29.484375 137.230469 30.089844 138.6875 C 30.695312 140.144531 31.371094 141.566406 32.117188 142.960938 C 32.863281 144.351562 33.675781 145.703125 34.554688 147.015625 C 35.433594 148.328125 36.375 149.59375 37.375 150.8125 C 38.378906 152.035156 39.4375 153.203125 40.554688 154.320312 C 42.789062 156.566406 45.21875 158.570312 47.84375 160.335938 C 50.472656 162.101562 53.25 163.589844 56.167969 164.808594 C 59.089844 166.023438 62.101562 166.941406 65.203125 167.558594 C 68.304688 168.179688 71.433594 168.488281 74.59375 168.488281 L 74.578125 165.9375 C 73.085938 165.9375 71.597656 165.859375 70.113281 165.710938 C 68.628906 165.5625 67.152344 165.339844 65.691406 165.046875 C 64.226562 164.75 62.78125 164.386719 61.351562 163.949219 C 59.921875 163.515625 58.519531 163.007812 57.140625 162.433594 C 55.761719 161.863281 54.410156 161.222656 53.09375 160.515625 C 51.777344 159.808594 50.496094 159.039062 49.253906 158.210938 C 48.011719 157.378906 46.816406 156.488281 45.660156 155.539062 C 44.503906 154.589844 43.398438 153.585938 42.339844 152.53125 C 41.285156 151.472656 40.28125 150.367188 39.332031 149.210938 C 38.382812 148.058594 37.492188 146.859375 36.660156 145.617188 C 35.832031 144.375 35.0625 143.09375 34.355469 141.777344 C 33.648438 140.460938 33.011719 139.113281 32.4375 137.730469 C 31.863281 136.351562 31.359375 134.949219 30.921875 133.519531 C 30.484375 132.09375 30.121094 130.644531 29.828125 129.183594 C 29.53125 127.71875 29.308594 126.242188 29.160156 124.757812 C 29.011719 123.273438 28.933594 121.785156 28.933594 120.292969 C 28.929688 118.800781 29 117.3125 29.140625 115.828125 C 29.285156 114.34375 29.5 112.871094 29.789062 111.410156 C 30.078125 109.945312 30.4375 108.5 30.867188 107.074219 C 31.296875 105.648438 31.796875 104.246094 32.363281 102.867188 C 32.933594 101.492188 33.566406 100.144531 34.265625 98.832031 C 34.96875 97.519531 35.730469 96.242188 36.558594 95.003906 C 37.382812 93.765625 38.269531 92.570312 39.210938 91.417969 C 40.15625 90.265625 41.15625 89.164062 42.207031 88.113281 C 43.261719 87.058594 44.363281 86.0625 45.511719 85.117188 C 46.664062 84.171875 47.859375 83.289062 49.097656 82.460938 C 50.335938 81.636719 51.613281 80.871094 52.929688 80.171875 C 54.242188 79.46875 55.589844 78.835938 56.964844 78.269531 C 58.34375 77.699219 59.746094 77.199219 61.171875 76.769531 C 62.597656 76.339844 64.042969 75.980469 65.503906 75.691406 C 66.96875 75.40625 68.441406 75.191406 69.925781 75.046875 C 71.410156 74.902344 72.898438 74.832031 74.390625 74.835938 L 88.832031 74.855469 L 88.824219 72.300781 L 74.390625 72.269531 C 71.230469 72.253906 68.101562 72.550781 65.003906 73.15625 C 61.902344 73.761719 58.894531 74.664062 55.980469 75.867188 C 53.0625 77.070312 50.292969 78.550781 47.671875 80.304688 C 45.050781 82.058594 42.628906 84.050781 40.402344 86.289062 Z M 63.085938 108.972656 C 62.527344 109.527344 62.015625 110.125 61.542969 110.761719 C 61.074219 111.394531 60.65625 112.058594 60.28125 112.757812 C 59.910156 113.453125 59.59375 114.175781 59.328125 114.917969 C 59.0625 115.664062 58.855469 116.421875 58.703125 117.199219 C 58.550781 117.972656 58.457031 118.753906 58.417969 119.546875 C 58.382812 120.335938 58.402344 121.125 58.480469 121.910156 C 58.558594 122.699219 58.695312 123.476562 58.890625 124.242188 C 59.085938 125.011719 59.332031 125.761719 59.636719 126.492188 C 59.941406 127.222656 60.296875 127.929688 60.707031 128.609375 C 61.113281 129.289062 61.570312 129.933594 62.070312 130.546875 C 62.574219 131.160156 63.121094 131.730469 63.707031 132.261719 C 64.292969 132.796875 64.917969 133.28125 65.574219 133.722656 C 66.234375 134.164062 66.921875 134.554688 67.636719 134.894531 C 68.351562 135.234375 69.089844 135.519531 69.847656 135.75 C 70.601562 135.980469 71.375 136.15625 72.15625 136.273438 C 72.9375 136.394531 73.726562 136.453125 74.515625 136.453125 L 74.511719 133.898438 C 73.625 133.894531 72.746094 133.804688 71.875 133.632812 C 71.003906 133.457031 70.15625 133.199219 69.335938 132.855469 C 68.511719 132.515625 67.734375 132.097656 66.992188 131.601562 C 66.253906 131.105469 65.570312 130.542969 64.941406 129.914062 C 64.3125 129.285156 63.75 128.601562 63.253906 127.863281 C 62.757812 127.121094 62.339844 126.339844 62 125.519531 C 61.65625 124.699219 61.398438 123.851562 61.222656 122.980469 C 61.046875 122.109375 60.960938 121.230469 60.957031 120.339844 C 60.957031 119.453125 61.042969 118.574219 61.210938 117.703125 C 61.382812 116.832031 61.640625 115.988281 61.976562 115.167969 C 62.316406 114.347656 62.730469 113.570312 63.222656 112.832031 C 63.714844 112.09375 64.273438 111.410156 64.898438 110.785156 C 65.527344 110.160156 66.207031 109.597656 66.945312 109.105469 C 67.683594 108.613281 68.460938 108.199219 69.28125 107.863281 C 70.101562 107.523438 70.949219 107.269531 71.816406 107.097656 C 72.6875 106.925781 73.570312 106.839844 74.457031 106.84375 L 88.933594 106.890625 L 88.921875 104.335938 L 74.449219 104.304688 C 72.316406 104.292969 70.269531 104.695312 68.300781 105.503906 C 66.332031 106.316406 64.597656 107.472656 63.09375 108.980469 Z M 44.933594 90.820312 C 43.484375 92.265625 42.152344 93.8125 40.933594 95.457031 C 39.714844 97.101562 38.621094 98.828125 37.660156 100.632812 C 36.695312 102.441406 35.867188 104.308594 35.179688 106.238281 C 34.492188 108.171875 33.953125 110.140625 33.554688 112.152344 C 33.160156 114.164062 32.914062 116.195312 32.816406 118.242188 C 32.71875 120.292969 32.773438 122.335938 32.980469 124.378906 C 33.183594 126.421875 33.539062 128.4375 34.039062 130.429688 C 34.542969 132.417969 35.1875 134.363281 35.980469 136.261719 C 36.769531 138.15625 37.691406 139.988281 38.75 141.75 C 39.808594 143.511719 40.992188 145.1875 42.296875 146.773438 C 43.601562 148.363281 45.015625 149.847656 46.539062 151.226562 C 48.0625 152.609375 49.675781 153.871094 51.386719 155.011719 C 53.09375 156.15625 54.875 157.167969 56.734375 158.046875 C 58.589844 158.929688 60.5 159.667969 62.464844 160.269531 C 64.429688 160.867188 66.425781 161.316406 68.457031 161.621094 C 70.488281 161.925781 72.527344 162.082031 74.578125 162.085938 L 74.574219 159.523438 C 73.300781 159.511719 72.027344 159.433594 70.761719 159.296875 C 69.492188 159.15625 68.234375 158.957031 66.984375 158.695312 C 65.734375 158.4375 64.503906 158.113281 63.285156 157.734375 C 62.066406 157.351562 60.871094 156.910156 59.695312 156.414062 C 58.519531 155.914062 57.371094 155.359375 56.246094 154.75 C 55.125 154.140625 54.035156 153.476562 52.980469 152.761719 C 51.921875 152.042969 50.902344 151.277344 49.917969 150.460938 C 48.933594 149.648438 47.992188 148.785156 47.09375 147.878906 C 46.195312 146.972656 45.34375 146.023438 44.535156 145.03125 C 43.726562 144.042969 42.972656 143.015625 42.265625 141.949219 C 41.558594 140.886719 40.902344 139.789062 40.304688 138.664062 C 39.703125 137.535156 39.160156 136.382812 38.671875 135.203125 C 38.183594 134.023438 37.753906 132.824219 37.382812 131.601562 C 37.015625 130.378906 36.703125 129.144531 36.453125 127.890625 C 36.203125 126.640625 36.015625 125.382812 35.890625 124.113281 C 35.761719 122.84375 35.695312 121.570312 35.695312 120.296875 C 35.691406 119.019531 35.75 117.75 35.871094 116.480469 C 35.996094 115.210938 36.179688 113.953125 36.421875 112.703125 C 36.667969 111.453125 36.972656 110.21875 37.339844 109 C 37.703125 107.777344 38.128906 106.578125 38.609375 105.402344 C 39.09375 104.222656 39.632812 103.074219 40.226562 101.949219 C 40.824219 100.824219 41.472656 99.730469 42.175781 98.667969 C 42.878906 97.609375 43.628906 96.585938 44.433594 95.597656 C 45.234375 94.609375 46.085938 93.664062 46.980469 92.761719 C 47.875 91.859375 48.8125 91 49.792969 90.1875 C 50.773438 89.378906 51.789062 88.617188 52.84375 87.902344 C 53.898438 87.191406 54.988281 86.535156 56.105469 85.929688 C 57.226562 85.324219 58.371094 84.773438 59.546875 84.28125 C 60.71875 83.785156 61.914062 83.351562 63.128906 82.976562 C 64.347656 82.597656 65.578125 82.28125 66.828125 82.027344 C 68.074219 81.769531 69.332031 81.578125 70.597656 81.445312 C 71.867188 81.3125 73.136719 81.242188 74.414062 81.230469 L 88.855469 81.265625 L 88.84375 78.703125 L 74.40625 78.675781 C 71.664062 78.660156 68.953125 78.917969 66.265625 79.441406 C 63.582031 79.96875 60.972656 80.753906 58.445312 81.796875 C 55.914062 82.839844 53.515625 84.121094 51.242188 85.640625 C 48.972656 87.160156 46.871094 88.890625 44.941406 90.828125 Z M 19.980469 120.261719 C 19.980469 122.046875 20.074219 123.828125 20.253906 125.605469 C 20.429688 127.382812 20.695312 129.148438 21.046875 130.902344 C 21.398438 132.652344 21.835938 134.382812 22.359375 136.09375 C 22.878906 137.804688 23.484375 139.484375 24.171875 141.132812 C 24.859375 142.785156 25.625 144.398438 26.46875 145.976562 C 27.3125 147.550781 28.234375 149.082031 29.226562 150.570312 C 30.222656 152.058594 31.289062 153.492188 32.425781 154.875 C 33.558594 156.257812 34.761719 157.582031 36.027344 158.847656 C 37.289062 160.109375 38.613281 161.3125 39.996094 162.445312 C 41.378906 163.582031 42.8125 164.648438 44.300781 165.644531 C 45.789062 166.636719 47.320312 167.558594 48.894531 168.402344 C 50.472656 169.246094 52.085938 170.015625 53.738281 170.699219 C 55.386719 171.386719 57.066406 171.992188 58.777344 172.511719 C 60.488281 173.035156 62.21875 173.472656 63.96875 173.824219 C 65.722656 174.175781 67.488281 174.441406 69.265625 174.621094 C 71.042969 174.796875 72.824219 174.890625 74.609375 174.894531 L 74.601562 172.335938 C 72.898438 172.332031 71.203125 172.246094 69.507812 172.074219 C 67.8125 171.902344 66.132812 171.652344 64.460938 171.316406 C 62.792969 170.980469 61.144531 170.5625 59.515625 170.066406 C 57.882812 169.570312 56.28125 168.992188 54.710938 168.339844 C 53.136719 167.683594 51.597656 166.957031 50.09375 166.148438 C 48.59375 165.34375 47.132812 164.46875 45.714844 163.519531 C 44.300781 162.570312 42.933594 161.554688 41.613281 160.472656 C 40.296875 159.390625 39.035156 158.246094 37.828125 157.042969 C 36.625 155.835938 35.480469 154.574219 34.398438 153.257812 C 33.316406 151.9375 32.300781 150.570312 31.351562 149.15625 C 30.402344 147.738281 29.527344 146.277344 28.722656 144.777344 C 27.917969 143.273438 27.1875 141.734375 26.53125 140.164062 C 25.878906 138.589844 25.300781 136.988281 24.804688 135.359375 C 24.308594 133.726562 23.890625 132.078125 23.554688 130.410156 C 23.21875 128.738281 22.96875 127.058594 22.796875 125.363281 C 22.625 123.671875 22.539062 121.972656 22.535156 120.269531 C 22.53125 118.570312 22.613281 116.871094 22.777344 115.179688 C 22.9375 113.484375 23.183594 111.804688 23.511719 110.136719 C 23.839844 108.46875 24.25 106.820312 24.742188 105.191406 C 25.230469 103.566406 25.800781 101.964844 26.449219 100.394531 C 27.097656 98.824219 27.820312 97.289062 28.621094 95.789062 C 29.417969 94.292969 30.289062 92.835938 31.230469 91.421875 C 32.175781 90.007812 33.183594 88.644531 34.261719 87.332031 C 35.335938 86.019531 36.476562 84.761719 37.675781 83.5625 C 38.878906 82.359375 40.136719 81.222656 41.449219 80.144531 C 42.761719 79.070312 44.125 78.058594 45.539062 77.117188 C 46.949219 76.175781 48.40625 75.304688 49.90625 74.503906 C 51.40625 73.707031 52.941406 72.980469 54.511719 72.335938 C 56.082031 71.6875 57.679688 71.117188 59.308594 70.625 C 60.933594 70.136719 62.582031 69.726562 64.25 69.398438 C 65.917969 69.070312 67.601562 68.824219 69.292969 68.660156 C 70.988281 68.496094 72.683594 68.417969 74.386719 68.421875 L 88.8125 68.453125 L 88.804688 65.894531 L 74.378906 65.863281 C 72.59375 65.859375 70.8125 65.945312 69.035156 66.117188 C 67.257812 66.285156 65.496094 66.542969 63.746094 66.890625 C 61.996094 67.234375 60.265625 67.664062 58.558594 68.179688 C 56.851562 68.691406 55.175781 69.289062 53.527344 69.96875 C 51.878906 70.648438 50.265625 71.410156 48.695312 72.246094 C 47.121094 73.085938 45.59375 74 44.113281 74.988281 C 42.628906 75.976562 41.199219 77.035156 39.820312 78.167969 C 38.445312 79.296875 37.125 80.492188 35.867188 81.75 C 34.605469 83.011719 33.410156 84.328125 32.28125 85.707031 C 31.152344 87.085938 30.09375 88.515625 29.101562 89.996094 C 28.113281 91.480469 27.199219 93.007812 26.363281 94.578125 C 25.523438 96.152344 24.765625 97.761719 24.085938 99.410156 C 23.40625 101.058594 22.808594 102.738281 22.292969 104.445312 C 21.777344 106.152344 21.347656 107.878906 21.003906 109.628906 C 20.660156 111.378906 20.402344 113.144531 20.230469 114.921875 C 20.058594 116.695312 19.976562 118.476562 19.980469 120.261719 Z M 19.980469 120.261719 " clip-rule="nonzero"/></clipPath><linearGradient x1="-4011.405988" gradientTransform="matrix(0.337744, 0.000705648, 0.000705648, 0.337744, 1372.47224, -1099.201834)" y1="3456.599437" x2="-3758.997994" gradientUnits="userSpaceOnUse" y2="3737.051834" id="9b2e2e3b5c"><stop stop-opacity="1" stop-color="rgb(63.09967%, 0%, 92.89856%)" offset="0"/><stop stop-opacity="1" stop-color="rgb(63.09967%, 0%, 92.89856%)" offset="0.25"/><stop stop-opacity="1" stop-color="rgb(63.09967%, 0%, 92.89856%)" offset="0.363197"/><stop stop-opacity="1" stop-color="rgb(63.09967%, 0%, 92.89856%)" offset="0.375"/><stop stop-opacity="1" stop-color="rgb(63.09967%, 0%, 92.89856%)" offset="0.4375"/><stop stop-opacity="1" stop-color="rgb(62.988281%, 0.038147%, 92.910767%)" offset="0.46875"/><stop stop-opacity="1" stop-color="rgb(61.730957%, 0.476074%, 93.052673%)" offset="0.472656"/><stop stop-opacity="1" stop-color="rgb(60.585022%, 0.875854%, 93.182373%)" offset="0.476562"/><stop stop-opacity="1" stop-color="rgb(59.439087%, 1.275635%, 93.310547%)" offset="0.480469"/><stop stop-opacity="1" stop-color="rgb(58.293152%, 1.675415%, 93.440247%)" offset="0.484375"/><stop stop-opacity="1" stop-color="rgb(57.145691%, 2.075195%, 93.56842%)" offset="0.488281"/><stop stop-opacity="1" stop-color="rgb(55.999756%, 2.474976%, 93.69812%)" offset="0.492188"/><stop stop-opacity="1" stop-color="rgb(54.852295%, 2.874756%, 93.826294%)" offset="0.496094"/><stop stop-opacity="1" stop-color="rgb(53.70636%, 3.274536%, 93.955994%)" offset="0.5"/><stop stop-opacity="1" stop-color="rgb(52.560425%, 3.672791%, 94.084167%)" offset="0.503906"/><stop stop-opacity="1" stop-color="rgb(51.41449%, 4.072571%, 94.213867%)" offset="0.507812"/><stop stop-opacity="1" stop-color="rgb(50.267029%, 4.472351%, 94.342041%)" offset="0.511719"/><stop stop-opacity="1" stop-color="rgb(49.121094%, 4.872131%, 94.471741%)" offset="0.515625"/><stop stop-opacity="1" stop-color="rgb(47.975159%, 5.271912%, 94.599915%)" offset="0.519531"/><stop stop-opacity="1" stop-color="rgb(46.829224%, 5.671692%, 94.729614%)" offset="0.523438"/><stop stop-opacity="1" stop-color="rgb(45.681763%, 6.071472%, 94.857788%)" offset="0.527344"/><stop stop-opacity="1" stop-color="rgb(44.535828%, 6.471252%, 94.987488%)" offset="0.53125"/><stop stop-opacity="1" stop-color="rgb(43.388367%, 6.871033%, 95.115662%)" offset="0.535156"/><stop stop-opacity="1" stop-color="rgb(42.242432%, 7.270813%, 95.245361%)" offset="0.539062"/><stop stop-opacity="1" stop-color="rgb(41.096497%, 7.670593%, 95.373535%)" offset="0.542969"/><stop stop-opacity="1" stop-color="rgb(39.950562%, 8.070374%, 95.503235%)" offset="0.546875"/><stop stop-opacity="1" stop-color="rgb(38.803101%, 8.470154%, 95.632935%)" offset="0.550781"/><stop stop-opacity="1" stop-color="rgb(37.657166%, 8.869934%, 95.762634%)" offset="0.554688"/><stop stop-opacity="1" stop-color="rgb(36.51123%, 9.269714%, 95.890808%)" offset="0.558594"/><stop stop-opacity="1" stop-color="rgb(35.365295%, 9.669495%, 96.020508%)" offset="0.5625"/><stop stop-opacity="1" stop-color="rgb(34.217834%, 10.069275%, 96.148682%)" offset="0.566406"/><stop stop-opacity="1" stop-color="rgb(33.071899%, 10.469055%, 96.278381%)" offset="0.570312"/><stop stop-opacity="1" stop-color="rgb(31.924438%, 10.86731%, 96.406555%)" offset="0.574219"/><stop stop-opacity="1" stop-color="rgb(30.778503%, 11.26709%, 96.536255%)" offset="0.578125"/><stop stop-opacity="1" stop-color="rgb(29.632568%, 11.66687%, 96.664429%)" offset="0.582031"/><stop stop-opacity="1" stop-color="rgb(28.486633%, 12.06665%, 96.794128%)" offset="0.585938"/><stop stop-opacity="1" stop-color="rgb(27.339172%, 12.466431%, 96.922302%)" offset="0.589844"/><stop stop-opacity="1" stop-color="rgb(26.193237%, 12.866211%, 97.052002%)" offset="0.59375"/><stop stop-opacity="1" stop-color="rgb(25.047302%, 13.265991%, 97.180176%)" offset="0.597656"/><stop stop-opacity="1" stop-color="rgb(23.901367%, 13.665771%, 97.309875%)" offset="0.601563"/><stop stop-opacity="1" stop-color="rgb(22.753906%, 14.065552%, 97.438049%)" offset="0.605469"/><stop stop-opacity="1" stop-color="rgb(21.607971%, 14.465332%, 97.567749%)" offset="0.609375"/><stop stop-opacity="1" stop-color="rgb(20.46051%, 14.865112%, 97.695923%)" offset="0.613281"/><stop stop-opacity="1" stop-color="rgb(19.314575%, 15.264893%, 97.825623%)" offset="0.617188"/><stop stop-opacity="1" stop-color="rgb(18.16864%, 15.664673%, 97.953796%)" offset="0.621094"/><stop stop-opacity="1" stop-color="rgb(17.022705%, 16.064453%, 98.083496%)" offset="0.625"/><stop stop-opacity="1" stop-color="rgb(15.875244%, 16.464233%, 98.21167%)" offset="0.628906"/><stop stop-opacity="1" stop-color="rgb(14.729309%, 16.864014%, 98.34137%)" offset="0.632813"/><stop stop-opacity="1" stop-color="rgb(13.583374%, 17.263794%, 98.469543%)" offset="0.636719"/><stop stop-opacity="1" stop-color="rgb(12.437439%, 17.663574%, 98.599243%)" offset="0.640625"/><stop stop-opacity="1" stop-color="rgb(11.289978%, 18.061829%, 98.727417%)" offset="0.644531"/><stop stop-opacity="1" stop-color="rgb(10.144043%, 18.461609%, 98.857117%)" offset="0.648438"/><stop stop-opacity="1" stop-color="rgb(8.996582%, 18.861389%, 98.985291%)" offset="0.652344"/><stop stop-opacity="1" stop-color="rgb(7.850647%, 19.261169%, 99.11499%)" offset="0.65625"/><stop stop-opacity="1" stop-color="rgb(6.704712%, 19.66095%, 99.24469%)" offset="0.660156"/><stop stop-opacity="1" stop-color="rgb(5.558777%, 20.06073%, 99.37439%)" offset="0.664063"/><stop stop-opacity="1" stop-color="rgb(4.411316%, 20.46051%, 99.502563%)" offset="0.667969"/><stop stop-opacity="1" stop-color="rgb(3.265381%, 20.860291%, 99.632263%)" offset="0.671875"/><stop stop-opacity="1" stop-color="rgb(2.119446%, 21.260071%, 99.760437%)" offset="0.675781"/><stop stop-opacity="1" stop-color="rgb(0.973511%, 21.659851%, 99.890137%)" offset="0.679688"/><stop stop-opacity="1" stop-color="rgb(0.486755%, 21.829224%, 99.945068%)" offset="0.683594"/><stop stop-opacity="1" stop-color="rgb(0%, 21.998596%, 100%)" offset="0.6875"/><stop stop-opacity="1" stop-color="rgb(0%, 21.998596%, 100%)" offset="0.75"/><stop stop-opacity="1" stop-color="rgb(0%, 21.998596%, 100%)" offset="1"/></linearGradient><clipPath id="06f391e8cd"><path d="M 126 65 L 184 65 L 184 107 L 126 107 Z M 126 65 " clip-rule="nonzero"/></clipPath><clipPath id="b08eee70fb"><path d="M 147.636719 128.511719 L 105.476562 86.351562 L 145.347656 46.480469 L 187.507812 88.644531 Z M 147.636719 128.511719 " clip-rule="nonzero"/></clipPath><clipPath id="b9af9467b4"><path d="M 147.636719 128.511719 L 105.476562 86.351562 L 145.347656 46.480469 L 187.507812 88.644531 Z M 147.636719 128.511719 " clip-rule="nonzero"/></clipPath><clipPath id="f9c7a26b2f"><path d="M 156.917969 91.492188 L 126.039062 91.523438 L 126.039062 94.089844 L 156.917969 94.054688 Z M 126.035156 68.421875 L 147.703125 68.398438 L 147.707031 65.835938 L 126.035156 65.859375 Z M 126.046875 74.828125 L 162.652344 74.789062 L 162.652344 72.226562 L 126.042969 72.261719 Z M 126.042969 104.355469 L 126.042969 106.917969 L 167.449219 106.875 L 167.460938 104.320312 Z M 126.035156 100.515625 L 175.625 100.457031 L 175.625 97.894531 L 126.042969 97.941406 Z M 126.027344 81.261719 L 173.65625 81.203125 L 173.660156 78.644531 L 126.039062 78.691406 Z M 126.039062 87.667969 L 183.90625 87.609375 L 183.910156 85.046875 L 126.039062 85.105469 Z M 126.039062 87.667969 " clip-rule="nonzero"/></clipPath><linearGradient x1="-3630.199334" gradientTransform="matrix(0.338354, -0.000347859, -0.000347859, 0.338354, 1355.417989, -1002.860118)" y1="3215.53" x2="-3459.001518" gradientUnits="userSpaceOnUse" y2="3215.53" id="a987071028"><stop stop-opacity="1" stop-color="rgb(63.09967%, 0%, 92.89856%)" offset="0"/><stop stop-opacity="1" stop-color="rgb(63.206482%, 0.344849%, 92.875671%)" offset="0.00390625"/><stop stop-opacity="1" stop-color="rgb(63.314819%, 0.691223%, 92.854309%)" offset="0.0078125"/><stop stop-opacity="1" stop-color="rgb(63.423157%, 1.042175%, 92.831421%)" offset="0.0117187"/><stop stop-opacity="1" stop-color="rgb(63.531494%, 1.393127%, 92.808533%)" offset="0.015625"/><stop stop-opacity="1" stop-color="rgb(63.639832%, 1.74408%, 92.785645%)" offset="0.0195312"/><stop stop-opacity="1" stop-color="rgb(63.749695%, 2.095032%, 92.764282%)" offset="0.0234375"/><stop stop-opacity="1" stop-color="rgb(63.858032%, 2.445984%, 92.741394%)" offset="0.0273438"/><stop stop-opacity="1" stop-color="rgb(63.967896%, 2.796936%, 92.718506%)" offset="0.03125"/><stop stop-opacity="1" stop-color="rgb(64.076233%, 3.147888%, 92.695618%)" offset="0.0351562"/><stop stop-opacity="1" stop-color="rgb(64.186096%, 3.49884%, 92.672729%)" offset="0.0390625"/><stop stop-opacity="1" stop-color="rgb(64.294434%, 3.849792%, 92.649841%)" offset="0.0429688"/><stop stop-opacity="1" stop-color="rgb(64.404297%, 4.200745%, 92.628479%)" offset="0.046875"/><stop stop-opacity="1" stop-color="rgb(64.512634%, 4.551697%, 92.605591%)" offset="0.0507812"/><stop stop-opacity="1" stop-color="rgb(64.622498%, 4.902649%, 92.582703%)" offset="0.0546875"/><stop stop-opacity="1" stop-color="rgb(64.730835%, 5.253601%, 92.559814%)" offset="0.0585938"/><stop stop-opacity="1" stop-color="rgb(64.840698%, 5.604553%, 92.536926%)" offset="0.0625"/><stop stop-opacity="1" stop-color="rgb(64.949036%, 5.955505%, 92.514038%)" offset="0.0664062"/><stop stop-opacity="1" stop-color="rgb(65.058899%, 6.306458%, 92.49115%)" offset="0.0703125"/><stop stop-opacity="1" stop-color="rgb(65.167236%, 6.65741%, 92.468262%)" offset="0.0742187"/><stop stop-opacity="1" stop-color="rgb(65.2771%, 7.008362%, 92.446899%)" offset="0.078125"/><stop stop-opacity="1" stop-color="rgb(65.385437%, 7.359314%, 92.424011%)" offset="0.0820312"/><stop stop-opacity="1" stop-color="rgb(65.4953%, 7.710266%, 92.401123%)" offset="0.0859375"/><stop stop-opacity="1" stop-color="rgb(65.603638%, 8.061218%, 92.378235%)" offset="0.0898437"/><stop stop-opacity="1" stop-color="rgb(65.713501%, 8.41217%, 92.355347%)" offset="0.09375"/><stop stop-opacity="1" stop-color="rgb(65.821838%, 8.763123%, 92.332458%)" offset="0.0976562"/><stop stop-opacity="1" stop-color="rgb(65.931702%, 9.114075%, 92.311096%)" offset="0.101562"/><stop stop-opacity="1" stop-color="rgb(66.040039%, 9.465027%, 92.288208%)" offset="0.105469"/><stop stop-opacity="1" stop-color="rgb(66.149902%, 9.815979%, 92.26532%)" offset="0.109375"/><stop stop-opacity="1" stop-color="rgb(66.25824%, 10.166931%, 92.242432%)" offset="0.113281"/><stop stop-opacity="1" stop-color="rgb(66.368103%, 10.517883%, 92.219543%)" offset="0.117187"/><stop stop-opacity="1" stop-color="rgb(66.47644%, 10.868835%, 92.196655%)" offset="0.121094"/><stop stop-opacity="1" stop-color="rgb(66.586304%, 11.219788%, 92.173767%)" offset="0.125"/><stop stop-opacity="1" stop-color="rgb(66.694641%, 11.57074%, 92.150879%)" offset="0.128906"/><stop stop-opacity="1" stop-color="rgb(66.802979%, 11.921692%, 92.129517%)" offset="0.132812"/><stop stop-opacity="1" stop-color="rgb(66.911316%, 12.272644%, 92.106628%)" offset="0.136719"/><stop stop-opacity="1" stop-color="rgb(67.021179%, 12.625122%, 92.08374%)" offset="0.140625"/><stop stop-opacity="1" stop-color="rgb(67.129517%, 12.976074%, 92.060852%)" offset="0.144531"/><stop stop-opacity="1" stop-color="rgb(67.23938%, 13.327026%, 92.037964%)" offset="0.148438"/><stop stop-opacity="1" stop-color="rgb(67.347717%, 13.677979%, 92.015076%)" offset="0.152344"/><stop stop-opacity="1" stop-color="rgb(67.457581%, 14.028931%, 91.993713%)" offset="0.15625"/><stop stop-opacity="1" stop-color="rgb(67.565918%, 14.379883%, 91.970825%)" offset="0.160156"/><stop stop-opacity="1" stop-color="rgb(67.675781%, 14.730835%, 91.947937%)" offset="0.164062"/><stop stop-opacity="1" stop-color="rgb(67.784119%, 15.081787%, 91.925049%)" offset="0.167969"/><stop stop-opacity="1" stop-color="rgb(67.893982%, 15.432739%, 91.902161%)" offset="0.171875"/><stop stop-opacity="1" stop-color="rgb(68.002319%, 15.783691%, 91.879272%)" offset="0.175781"/><stop stop-opacity="1" stop-color="rgb(68.112183%, 16.134644%, 91.856384%)" offset="0.179688"/><stop stop-opacity="1" stop-color="rgb(68.22052%, 16.485596%, 91.833496%)" offset="0.183594"/><stop stop-opacity="1" stop-color="rgb(68.330383%, 16.836548%, 91.812134%)" offset="0.1875"/><stop stop-opacity="1" stop-color="rgb(68.438721%, 17.1875%, 91.789246%)" offset="0.191406"/><stop stop-opacity="1" stop-color="rgb(68.548584%, 17.538452%, 91.766357%)" offset="0.195312"/><stop stop-opacity="1" stop-color="rgb(68.656921%, 17.889404%, 91.743469%)" offset="0.199219"/><stop stop-opacity="1" stop-color="rgb(68.766785%, 18.240356%, 91.720581%)" offset="0.203125"/><stop stop-opacity="1" stop-color="rgb(68.875122%, 18.591309%, 91.697693%)" offset="0.207031"/><stop stop-opacity="1" stop-color="rgb(68.984985%, 18.942261%, 91.676331%)" offset="0.210937"/><stop stop-opacity="1" stop-color="rgb(69.093323%, 19.293213%, 91.653442%)" offset="0.214844"/><stop stop-opacity="1" stop-color="rgb(69.203186%, 19.644165%, 91.630554%)" offset="0.21875"/><stop stop-opacity="1" stop-color="rgb(69.311523%, 19.995117%, 91.607666%)" offset="0.222656"/><stop stop-opacity="1" stop-color="rgb(69.421387%, 20.346069%, 91.584778%)" offset="0.226562"/><stop stop-opacity="1" stop-color="rgb(69.529724%, 20.697021%, 91.56189%)" offset="0.230469"/><stop stop-opacity="1" stop-color="rgb(69.639587%, 21.047974%, 91.539001%)" offset="0.234375"/><stop stop-opacity="1" stop-color="rgb(69.747925%, 21.398926%, 91.516113%)" offset="0.238281"/><stop stop-opacity="1" stop-color="rgb(69.856262%, 21.749878%, 91.494751%)" offset="0.242187"/><stop stop-opacity="1" stop-color="rgb(69.9646%, 22.10083%, 91.471863%)" offset="0.246094"/><stop stop-opacity="1" stop-color="rgb(70.074463%, 22.451782%, 91.448975%)" offset="0.25"/><stop stop-opacity="1" stop-color="rgb(70.1828%, 22.802734%, 91.426086%)" offset="0.253906"/><stop stop-opacity="1" stop-color="rgb(70.292664%, 23.153687%, 91.403198%)" offset="0.257812"/><stop stop-opacity="1" stop-color="rgb(70.401001%, 23.504639%, 91.38031%)" offset="0.261719"/><stop stop-opacity="1" stop-color="rgb(70.510864%, 23.855591%, 91.358948%)" offset="0.265625"/><stop stop-opacity="1" stop-color="rgb(70.619202%, 24.206543%, 91.33606%)" offset="0.269531"/><stop stop-opacity="1" stop-color="rgb(70.729065%, 24.557495%, 91.313171%)" offset="0.273438"/><stop stop-opacity="1" stop-color="rgb(70.837402%, 24.908447%, 91.290283%)" offset="0.277344"/><stop stop-opacity="1" stop-color="rgb(70.947266%, 25.259399%, 91.267395%)" offset="0.28125"/><stop stop-opacity="1" stop-color="rgb(71.055603%, 25.610352%, 91.244507%)" offset="0.285156"/><stop stop-opacity="1" stop-color="rgb(71.165466%, 25.961304%, 91.221619%)" offset="0.289062"/><stop stop-opacity="1" stop-color="rgb(71.273804%, 26.312256%, 91.19873%)" offset="0.292969"/><stop stop-opacity="1" stop-color="rgb(71.383667%, 26.663208%, 91.177368%)" offset="0.296875"/><stop stop-opacity="1" stop-color="rgb(71.492004%, 27.01416%, 91.15448%)" offset="0.300781"/><stop stop-opacity="1" stop-color="rgb(71.601868%, 27.365112%, 91.131592%)" offset="0.304687"/><stop stop-opacity="1" stop-color="rgb(71.710205%, 27.716064%, 91.108704%)" offset="0.308594"/><stop stop-opacity="1" stop-color="rgb(71.820068%, 28.067017%, 91.085815%)" offset="0.3125"/><stop stop-opacity="1" stop-color="rgb(71.928406%, 28.417969%, 91.062927%)" offset="0.316406"/><stop stop-opacity="1" stop-color="rgb(72.038269%, 28.768921%, 91.041565%)" offset="0.320312"/><stop stop-opacity="1" stop-color="rgb(72.146606%, 29.119873%, 91.018677%)" offset="0.324219"/><stop stop-opacity="1" stop-color="rgb(72.25647%, 29.470825%, 90.995789%)" offset="0.328125"/><stop stop-opacity="1" stop-color="rgb(72.364807%, 29.821777%, 90.9729%)" offset="0.332031"/><stop stop-opacity="1" stop-color="rgb(72.47467%, 30.174255%, 90.950012%)" offset="0.335938"/><stop stop-opacity="1" stop-color="rgb(72.583008%, 30.525208%, 90.927124%)" offset="0.339844"/><stop stop-opacity="1" stop-color="rgb(72.692871%, 30.87616%, 90.905762%)" offset="0.34375"/><stop stop-opacity="1" stop-color="rgb(72.801208%, 31.227112%, 90.882874%)" offset="0.347656"/><stop stop-opacity="1" stop-color="rgb(72.909546%, 31.578064%, 90.859985%)" offset="0.351562"/><stop stop-opacity="1" stop-color="rgb(73.017883%, 31.929016%, 90.837097%)" offset="0.355469"/><stop stop-opacity="1" stop-color="rgb(73.127747%, 32.279968%, 90.814209%)" offset="0.359375"/><stop stop-opacity="1" stop-color="rgb(73.236084%, 32.63092%, 90.791321%)" offset="0.363281"/><stop stop-opacity="1" stop-color="rgb(73.345947%, 32.981873%, 90.768433%)" offset="0.367188"/><stop stop-opacity="1" stop-color="rgb(73.454285%, 33.332825%, 90.745544%)" offset="0.371094"/><stop stop-opacity="1" stop-color="rgb(73.564148%, 33.683777%, 90.724182%)" offset="0.375"/><stop stop-opacity="1" stop-color="rgb(73.672485%, 34.034729%, 90.701294%)" offset="0.378906"/><stop stop-opacity="1" stop-color="rgb(73.782349%, 34.385681%, 90.678406%)" offset="0.382812"/><stop stop-opacity="1" stop-color="rgb(73.890686%, 34.736633%, 90.655518%)" offset="0.386719"/><stop stop-opacity="1" stop-color="rgb(74.000549%, 35.087585%, 90.632629%)" offset="0.390625"/><stop stop-opacity="1" stop-color="rgb(74.108887%, 35.438538%, 90.609741%)" offset="0.394531"/><stop stop-opacity="1" stop-color="rgb(74.21875%, 35.78949%, 90.588379%)" offset="0.398438"/><stop stop-opacity="1" stop-color="rgb(74.327087%, 36.140442%, 90.565491%)" offset="0.402344"/><stop stop-opacity="1" stop-color="rgb(74.436951%, 36.491394%, 90.542603%)" offset="0.40625"/><stop stop-opacity="1" stop-color="rgb(74.545288%, 36.842346%, 90.519714%)" offset="0.410156"/><stop stop-opacity="1" stop-color="rgb(74.655151%, 37.193298%, 90.496826%)" offset="0.414062"/><stop stop-opacity="1" stop-color="rgb(74.763489%, 37.54425%, 90.473938%)" offset="0.417969"/><stop stop-opacity="1" stop-color="rgb(74.873352%, 37.895203%, 90.45105%)" offset="0.421875"/><stop stop-opacity="1" stop-color="rgb(74.981689%, 38.246155%, 90.428162%)" offset="0.425781"/><stop stop-opacity="1" stop-color="rgb(75.091553%, 38.597107%, 90.406799%)" offset="0.429688"/><stop stop-opacity="1" stop-color="rgb(75.19989%, 38.948059%, 90.383911%)" offset="0.433594"/><stop stop-opacity="1" stop-color="rgb(75.309753%, 39.299011%, 90.361023%)" offset="0.4375"/><stop stop-opacity="1" stop-color="rgb(75.418091%, 39.649963%, 90.338135%)" offset="0.441406"/><stop stop-opacity="1" stop-color="rgb(75.527954%, 40.000916%, 90.315247%)" offset="0.445313"/><stop stop-opacity="1" stop-color="rgb(75.636292%, 40.351868%, 90.292358%)" offset="0.449219"/><stop stop-opacity="1" stop-color="rgb(75.746155%, 40.70282%, 90.270996%)" offset="0.453125"/><stop stop-opacity="1" stop-color="rgb(75.854492%, 41.053772%, 90.248108%)" offset="0.457031"/><stop stop-opacity="1" stop-color="rgb(75.96283%, 41.404724%, 90.22522%)" offset="0.460938"/><stop stop-opacity="1" stop-color="rgb(76.071167%, 41.755676%, 90.202332%)" offset="0.464844"/><stop stop-opacity="1" stop-color="rgb(76.18103%, 42.106628%, 90.179443%)" offset="0.46875"/><stop stop-opacity="1" stop-color="rgb(76.289368%, 42.457581%, 90.156555%)" offset="0.472656"/><stop stop-opacity="1" stop-color="rgb(76.399231%, 42.808533%, 90.133667%)" offset="0.476562"/><stop stop-opacity="1" stop-color="rgb(76.507568%, 43.159485%, 90.110779%)" offset="0.480469"/><stop stop-opacity="1" stop-color="rgb(76.617432%, 43.510437%, 90.089417%)" offset="0.484375"/><stop stop-opacity="1" stop-color="rgb(76.725769%, 43.861389%, 90.066528%)" offset="0.488281"/><stop stop-opacity="1" stop-color="rgb(76.835632%, 44.212341%, 90.04364%)" offset="0.492188"/><stop stop-opacity="1" stop-color="rgb(76.94397%, 44.563293%, 90.020752%)" offset="0.496094"/><stop stop-opacity="1" stop-color="rgb(77.053833%, 44.914246%, 89.997864%)" offset="0.5"/><stop stop-opacity="1" stop-color="rgb(77.16217%, 45.265198%, 89.974976%)" offset="0.503906"/><stop stop-opacity="1" stop-color="rgb(77.272034%, 45.61615%, 89.953613%)" offset="0.507813"/><stop stop-opacity="1" stop-color="rgb(77.380371%, 45.967102%, 89.930725%)" offset="0.511719"/><stop stop-opacity="1" stop-color="rgb(77.490234%, 46.318054%, 89.907837%)" offset="0.515625"/><stop stop-opacity="1" stop-color="rgb(77.598572%, 46.669006%, 89.884949%)" offset="0.519531"/><stop stop-opacity="1" stop-color="rgb(77.708435%, 47.019958%, 89.862061%)" offset="0.523438"/><stop stop-opacity="1" stop-color="rgb(77.816772%, 47.370911%, 89.839172%)" offset="0.527344"/><stop stop-opacity="1" stop-color="rgb(77.926636%, 47.721863%, 89.816284%)" offset="0.53125"/><stop stop-opacity="1" stop-color="rgb(78.034973%, 48.072815%, 89.793396%)" offset="0.535156"/><stop stop-opacity="1" stop-color="rgb(78.144836%, 48.425293%, 89.772034%)" offset="0.539062"/><stop stop-opacity="1" stop-color="rgb(78.253174%, 48.776245%, 89.749146%)" offset="0.542969"/><stop stop-opacity="1" stop-color="rgb(78.363037%, 49.127197%, 89.726257%)" offset="0.546875"/><stop stop-opacity="1" stop-color="rgb(78.471375%, 49.478149%, 89.703369%)" offset="0.550781"/><stop stop-opacity="1" stop-color="rgb(78.581238%, 49.829102%, 89.680481%)" offset="0.554688"/><stop stop-opacity="1" stop-color="rgb(78.689575%, 50.180054%, 89.657593%)" offset="0.558594"/><stop stop-opacity="1" stop-color="rgb(78.799438%, 50.531006%, 89.63623%)" offset="0.5625"/><stop stop-opacity="1" stop-color="rgb(78.907776%, 50.881958%, 89.613342%)" offset="0.566406"/><stop stop-opacity="1" stop-color="rgb(79.017639%, 51.23291%, 89.590454%)" offset="0.570312"/><stop stop-opacity="1" stop-color="rgb(79.125977%, 51.583862%, 89.567566%)" offset="0.574219"/><stop stop-opacity="1" stop-color="rgb(79.234314%, 51.934814%, 89.544678%)" offset="0.578125"/><stop stop-opacity="1" stop-color="rgb(79.342651%, 52.285767%, 89.52179%)" offset="0.582031"/><stop stop-opacity="1" stop-color="rgb(79.452515%, 52.636719%, 89.498901%)" offset="0.585938"/><stop stop-opacity="1" stop-color="rgb(79.560852%, 52.987671%, 89.476013%)" offset="0.589844"/><stop stop-opacity="1" stop-color="rgb(79.670715%, 53.338623%, 89.454651%)" offset="0.59375"/><stop stop-opacity="1" stop-color="rgb(79.779053%, 53.689575%, 89.431763%)" offset="0.597656"/><stop stop-opacity="1" stop-color="rgb(79.888916%, 54.040527%, 89.408875%)" offset="0.601562"/><stop stop-opacity="1" stop-color="rgb(79.997253%, 54.391479%, 89.385986%)" offset="0.605469"/><stop stop-opacity="1" stop-color="rgb(80.107117%, 54.742432%, 89.363098%)" offset="0.609375"/><stop stop-opacity="1" stop-color="rgb(80.215454%, 55.093384%, 89.34021%)" offset="0.613281"/><stop stop-opacity="1" stop-color="rgb(80.325317%, 55.444336%, 89.318848%)" offset="0.617187"/><stop stop-opacity="1" stop-color="rgb(80.433655%, 55.795288%, 89.295959%)" offset="0.621094"/><stop stop-opacity="1" stop-color="rgb(80.543518%, 56.14624%, 89.273071%)" offset="0.625"/><stop stop-opacity="1" stop-color="rgb(80.651855%, 56.497192%, 89.250183%)" offset="0.628906"/><stop stop-opacity="1" stop-color="rgb(80.761719%, 56.848145%, 89.227295%)" offset="0.632812"/><stop stop-opacity="1" stop-color="rgb(80.870056%, 57.199097%, 89.204407%)" offset="0.636719"/><stop stop-opacity="1" stop-color="rgb(80.979919%, 57.550049%, 89.181519%)" offset="0.640625"/><stop stop-opacity="1" stop-color="rgb(81.088257%, 57.901001%, 89.15863%)" offset="0.644531"/><stop stop-opacity="1" stop-color="rgb(81.19812%, 58.251953%, 89.137268%)" offset="0.648437"/><stop stop-opacity="1" stop-color="rgb(81.306458%, 58.602905%, 89.11438%)" offset="0.652344"/><stop stop-opacity="1" stop-color="rgb(81.416321%, 58.953857%, 89.091492%)" offset="0.65625"/><stop stop-opacity="1" stop-color="rgb(81.524658%, 59.30481%, 89.068604%)" offset="0.660156"/><stop stop-opacity="1" stop-color="rgb(81.634521%, 59.655762%, 89.045715%)" offset="0.664062"/><stop stop-opacity="1" stop-color="rgb(81.742859%, 60.006714%, 89.022827%)" offset="0.667969"/><stop stop-opacity="1" stop-color="rgb(81.852722%, 60.357666%, 89.001465%)" offset="0.671875"/><stop stop-opacity="1" stop-color="rgb(81.96106%, 60.708618%, 88.978577%)" offset="0.675781"/><stop stop-opacity="1" stop-color="rgb(82.070923%, 61.05957%, 88.955688%)" offset="0.679688"/><stop stop-opacity="1" stop-color="rgb(82.17926%, 61.410522%, 88.9328%)" offset="0.683594"/><stop stop-opacity="1" stop-color="rgb(82.287598%, 61.761475%, 88.909912%)" offset="0.6875"/><stop stop-opacity="1" stop-color="rgb(82.395935%, 62.112427%, 88.887024%)" offset="0.691406"/><stop stop-opacity="1" stop-color="rgb(82.505798%, 62.463379%, 88.864136%)" offset="0.695313"/><stop stop-opacity="1" stop-color="rgb(82.614136%, 62.814331%, 88.841248%)" offset="0.699219"/><stop stop-opacity="1" stop-color="rgb(82.723999%, 63.165283%, 88.819885%)" offset="0.703125"/><stop stop-opacity="1" stop-color="rgb(82.832336%, 63.516235%, 88.796997%)" offset="0.707031"/><stop stop-opacity="1" stop-color="rgb(82.9422%, 63.867188%, 88.774109%)" offset="0.710938"/><stop stop-opacity="1" stop-color="rgb(83.050537%, 64.21814%, 88.751221%)" offset="0.714844"/><stop stop-opacity="1" stop-color="rgb(83.1604%, 64.569092%, 88.728333%)" offset="0.71875"/><stop stop-opacity="1" stop-color="rgb(83.268738%, 64.920044%, 88.705444%)" offset="0.722656"/><stop stop-opacity="1" stop-color="rgb(83.378601%, 65.270996%, 88.684082%)" offset="0.726562"/><stop stop-opacity="1" stop-color="rgb(83.486938%, 65.621948%, 88.661194%)" offset="0.730469"/><stop stop-opacity="1" stop-color="rgb(83.596802%, 65.974426%, 88.638306%)" offset="0.734375"/><stop stop-opacity="1" stop-color="rgb(83.705139%, 66.325378%, 88.615417%)" offset="0.738281"/><stop stop-opacity="1" stop-color="rgb(83.815002%, 66.676331%, 88.592529%)" offset="0.742188"/><stop stop-opacity="1" stop-color="rgb(83.92334%, 67.027283%, 88.569641%)" offset="0.746094"/><stop stop-opacity="1" stop-color="rgb(84.033203%, 67.378235%, 88.546753%)" offset="0.75"/><stop stop-opacity="1" stop-color="rgb(84.141541%, 67.729187%, 88.523865%)" offset="0.753906"/><stop stop-opacity="1" stop-color="rgb(84.251404%, 68.080139%, 88.502502%)" offset="0.757812"/><stop stop-opacity="1" stop-color="rgb(84.359741%, 68.431091%, 88.479614%)" offset="0.761719"/><stop stop-opacity="1" stop-color="rgb(84.469604%, 68.782043%, 88.456726%)" offset="0.765625"/><stop stop-opacity="1" stop-color="rgb(84.577942%, 69.132996%, 88.433838%)" offset="0.769531"/><stop stop-opacity="1" stop-color="rgb(84.687805%, 69.483948%, 88.41095%)" offset="0.773438"/><stop stop-opacity="1" stop-color="rgb(84.796143%, 69.8349%, 88.388062%)" offset="0.777344"/><stop stop-opacity="1" stop-color="rgb(84.906006%, 70.185852%, 88.366699%)" offset="0.78125"/><stop stop-opacity="1" stop-color="rgb(85.014343%, 70.536804%, 88.343811%)" offset="0.785156"/><stop stop-opacity="1" stop-color="rgb(85.124207%, 70.887756%, 88.320923%)" offset="0.789062"/><stop stop-opacity="1" stop-color="rgb(85.232544%, 71.238708%, 88.298035%)" offset="0.792969"/><stop stop-opacity="1" stop-color="rgb(85.340881%, 71.589661%, 88.275146%)" offset="0.796875"/><stop stop-opacity="1" stop-color="rgb(85.449219%, 71.940613%, 88.252258%)" offset="0.800781"/><stop stop-opacity="1" stop-color="rgb(85.559082%, 72.291565%, 88.22937%)" offset="0.804687"/><stop stop-opacity="1" stop-color="rgb(85.667419%, 72.642517%, 88.206482%)" offset="0.808594"/><stop stop-opacity="1" stop-color="rgb(85.777283%, 72.993469%, 88.18512%)" offset="0.8125"/><stop stop-opacity="1" stop-color="rgb(85.88562%, 73.344421%, 88.162231%)" offset="0.816406"/><stop stop-opacity="1" stop-color="rgb(85.995483%, 73.695374%, 88.139343%)" offset="0.820312"/><stop stop-opacity="1" stop-color="rgb(86.103821%, 74.046326%, 88.116455%)" offset="0.824219"/><stop stop-opacity="1" stop-color="rgb(86.213684%, 74.397278%, 88.093567%)" offset="0.828125"/><stop stop-opacity="1" stop-color="rgb(86.322021%, 74.74823%, 88.070679%)" offset="0.832031"/><stop stop-opacity="1" stop-color="rgb(86.431885%, 75.099182%, 88.049316%)" offset="0.835938"/><stop stop-opacity="1" stop-color="rgb(86.540222%, 75.450134%, 88.026428%)" offset="0.839844"/><stop stop-opacity="1" stop-color="rgb(86.650085%, 75.801086%, 88.00354%)" offset="0.84375"/><stop stop-opacity="1" stop-color="rgb(86.758423%, 76.152039%, 87.980652%)" offset="0.847656"/><stop stop-opacity="1" stop-color="rgb(86.868286%, 76.502991%, 87.957764%)" offset="0.851563"/><stop stop-opacity="1" stop-color="rgb(86.976624%, 76.853943%, 87.934875%)" offset="0.855469"/><stop stop-opacity="1" stop-color="rgb(87.086487%, 77.204895%, 87.911987%)" offset="0.859375"/><stop stop-opacity="1" stop-color="rgb(87.194824%, 77.555847%, 87.889099%)" offset="0.863281"/><stop stop-opacity="1" stop-color="rgb(87.304688%, 77.906799%, 87.867737%)" offset="0.867188"/><stop stop-opacity="1" stop-color="rgb(87.413025%, 78.257751%, 87.844849%)" offset="0.871094"/><stop stop-opacity="1" stop-color="rgb(87.522888%, 78.608704%, 87.82196%)" offset="0.875"/><stop stop-opacity="1" stop-color="rgb(87.631226%, 78.959656%, 87.799072%)" offset="0.878906"/><stop stop-opacity="1" stop-color="rgb(87.741089%, 79.310608%, 87.776184%)" offset="0.882813"/><stop stop-opacity="1" stop-color="rgb(87.849426%, 79.66156%, 87.753296%)" offset="0.886719"/><stop stop-opacity="1" stop-color="rgb(87.95929%, 80.012512%, 87.731934%)" offset="0.890625"/><stop stop-opacity="1" stop-color="rgb(88.067627%, 80.363464%, 87.709045%)" offset="0.894531"/><stop stop-opacity="1" stop-color="rgb(88.17749%, 80.714417%, 87.686157%)" offset="0.898438"/><stop stop-opacity="1" stop-color="rgb(88.285828%, 81.065369%, 87.663269%)" offset="0.902344"/><stop stop-opacity="1" stop-color="rgb(88.394165%, 81.416321%, 87.640381%)" offset="0.90625"/><stop stop-opacity="1" stop-color="rgb(88.502502%, 81.767273%, 87.617493%)" offset="0.910156"/><stop stop-opacity="1" stop-color="rgb(88.612366%, 82.118225%, 87.594604%)" offset="0.914062"/><stop stop-opacity="1" stop-color="rgb(88.720703%, 82.469177%, 87.571716%)" offset="0.917969"/><stop stop-opacity="1" stop-color="rgb(88.830566%, 82.820129%, 87.550354%)" offset="0.921875"/><stop stop-opacity="1" stop-color="rgb(88.938904%, 83.171082%, 87.527466%)" offset="0.925781"/><stop stop-opacity="1" stop-color="rgb(89.048767%, 83.52356%, 87.504578%)" offset="0.929688"/><stop stop-opacity="1" stop-color="rgb(89.157104%, 83.874512%, 87.481689%)" offset="0.933594"/><stop stop-opacity="1" stop-color="rgb(89.266968%, 84.225464%, 87.458801%)" offset="0.9375"/><stop stop-opacity="1" stop-color="rgb(89.375305%, 84.576416%, 87.435913%)" offset="0.941406"/><stop stop-opacity="1" stop-color="rgb(89.485168%, 84.927368%, 87.414551%)" offset="0.945312"/><stop stop-opacity="1" stop-color="rgb(89.593506%, 85.27832%, 87.391663%)" offset="0.949219"/><stop stop-opacity="1" stop-color="rgb(89.703369%, 85.629272%, 87.368774%)" offset="0.953125"/><stop stop-opacity="1" stop-color="rgb(89.811707%, 85.980225%, 87.345886%)" offset="0.957031"/><stop stop-opacity="1" stop-color="rgb(89.92157%, 86.331177%, 87.322998%)" offset="0.960938"/><stop stop-opacity="1" stop-color="rgb(90.029907%, 86.682129%, 87.30011%)" offset="0.964844"/><stop stop-opacity="1" stop-color="rgb(90.139771%, 87.033081%, 87.277222%)" offset="0.96875"/><stop stop-opacity="1" stop-color="rgb(90.248108%, 87.384033%, 87.254333%)" offset="0.972656"/><stop stop-opacity="1" stop-color="rgb(90.357971%, 87.734985%, 87.232971%)" offset="0.976562"/><stop stop-opacity="1" stop-color="rgb(90.466309%, 88.085938%, 87.210083%)" offset="0.980469"/><stop stop-opacity="1" stop-color="rgb(90.576172%, 88.43689%, 87.187195%)" offset="0.984375"/><stop stop-opacity="1" stop-color="rgb(90.684509%, 88.787842%, 87.164307%)" offset="0.988281"/><stop stop-opacity="1" stop-color="rgb(90.794373%, 89.138794%, 87.141418%)" offset="0.992187"/><stop stop-opacity="1" stop-color="rgb(90.896606%, 89.468384%, 87.120056%)" offset="0.996094"/><stop stop-opacity="1" stop-color="rgb(90.99884%, 89.7995%, 87.098694%)" offset="1"/></linearGradient><clipPath id="8d1b5ea9b1"><path d="M 74 4 L 129 4 L 129 175 L 74 175 Z M 74 4 " clip-rule="nonzero"/></clipPath><clipPath id="5c294a616f"><path d="M 85.625 186.183594 L -4.195312 96.363281 L 87.460938 4.710938 L 177.28125 94.53125 Z M 85.625 186.183594 " clip-rule="nonzero"/></clipPath><clipPath id="4c8b8ee1e1"><path d="M 85.625 186.183594 L -4.195312 96.363281 L 87.460938 4.710938 L 177.28125 94.53125 Z M 85.625 186.183594 " clip-rule="nonzero"/></clipPath><clipPath id="cfdbdcdef9"><path d="M 74.234375 140.320312 L 74.238281 142.878906 C 74.972656 142.878906 75.707031 142.84375 76.4375 142.769531 C 77.171875 142.699219 77.894531 142.589844 78.617188 142.449219 C 79.335938 142.304688 80.050781 142.128906 80.753906 141.914062 C 81.457031 141.703125 82.144531 141.457031 82.824219 141.175781 C 83.503906 140.894531 84.167969 140.582031 84.8125 140.234375 C 85.460938 139.890625 86.089844 139.515625 86.699219 139.105469 C 87.3125 138.699219 87.898438 138.261719 88.46875 137.796875 C 89.035156 137.332031 89.578125 136.839844 90.097656 136.320312 C 90.617188 135.800781 91.109375 135.257812 91.574219 134.691406 C 92.039062 134.125 92.476562 133.535156 92.882812 132.925781 C 93.289062 132.3125 93.667969 131.683594 94.011719 131.039062 C 94.359375 130.390625 94.671875 129.726562 94.953125 129.046875 C 95.234375 128.371094 95.480469 127.679688 95.691406 126.976562 C 95.90625 126.273438 96.082031 125.5625 96.226562 124.839844 C 96.367188 124.121094 96.476562 123.394531 96.546875 122.664062 C 96.617188 121.929688 96.652344 121.199219 96.652344 120.460938 L 96.46875 13.71875 L 93.90625 11.15625 L 94.097656 120.457031 C 94.097656 121.109375 94.066406 121.757812 94.003906 122.40625 C 93.941406 123.054688 93.84375 123.699219 93.71875 124.335938 C 93.59375 124.976562 93.433594 125.605469 93.246094 126.230469 C 93.058594 126.851562 92.839844 127.464844 92.589844 128.066406 C 92.34375 128.667969 92.066406 129.253906 91.757812 129.828125 C 91.453125 130.402344 91.117188 130.960938 90.757812 131.5 C 90.394531 132.042969 90.007812 132.566406 89.597656 133.066406 C 89.183594 133.570312 88.75 134.050781 88.289062 134.511719 C 87.828125 134.972656 87.347656 135.40625 86.84375 135.820312 C 86.339844 136.234375 85.820312 136.621094 85.277344 136.980469 C 84.738281 137.34375 84.179688 137.675781 83.605469 137.980469 C 83.03125 138.289062 82.445312 138.566406 81.84375 138.8125 C 81.242188 139.0625 80.628906 139.28125 80.007812 139.46875 C 79.382812 139.660156 78.753906 139.816406 78.113281 139.941406 C 77.476562 140.070312 76.832031 140.164062 76.183594 140.226562 C 75.535156 140.289062 74.886719 140.320312 74.234375 140.320312 Z M 87.691406 120.457031 C 87.695312 121.34375 87.609375 122.21875 87.4375 123.089844 C 87.261719 123.957031 87.007812 124.800781 86.671875 125.621094 C 86.332031 126.4375 85.917969 127.214844 85.425781 127.949219 C 84.933594 128.6875 84.375 129.367188 83.75 129.992188 C 83.125 130.617188 82.445312 131.175781 81.707031 131.667969 C 80.972656 132.160156 80.195312 132.574219 79.378906 132.914062 C 78.558594 133.25 77.714844 133.507812 76.847656 133.679688 C 75.976562 133.851562 75.101562 133.9375 74.214844 133.9375 L 74.21875 136.492188 C 74.742188 136.492188 75.269531 136.464844 75.792969 136.414062 C 76.316406 136.363281 76.832031 136.289062 77.347656 136.183594 C 77.863281 136.082031 78.375 135.957031 78.875 135.804688 C 79.378906 135.652344 79.871094 135.476562 80.359375 135.273438 C 80.84375 135.074219 81.316406 134.847656 81.78125 134.601562 C 82.242188 134.355469 82.695312 134.085938 83.128906 133.792969 C 83.566406 133.503906 83.988281 133.191406 84.394531 132.859375 C 84.800781 132.523438 85.1875 132.171875 85.558594 131.800781 C 85.929688 131.429688 86.28125 131.042969 86.613281 130.636719 C 86.949219 130.230469 87.261719 129.808594 87.550781 129.371094 C 87.84375 128.9375 88.113281 128.488281 88.359375 128.023438 C 88.605469 127.558594 88.832031 127.085938 89.03125 126.601562 C 89.230469 126.117188 89.410156 125.621094 89.5625 125.117188 C 89.714844 124.617188 89.839844 124.105469 89.941406 123.589844 C 90.042969 123.078125 90.121094 122.558594 90.171875 122.035156 C 90.222656 121.511719 90.25 120.988281 90.25 120.460938 L 90.058594 7.308594 L 87.5 4.75 Z M 92.824219 139.050781 C 91.609375 140.273438 90.285156 141.363281 88.851562 142.320312 C 87.417969 143.28125 85.902344 144.089844 84.308594 144.746094 C 82.714844 145.40625 81.070312 145.898438 79.375 146.230469 C 77.683594 146.5625 75.972656 146.722656 74.246094 146.714844 L 74.25 149.273438 C 75.195312 149.273438 76.136719 149.230469 77.078125 149.136719 C 78.019531 149.046875 78.953125 148.910156 79.878906 148.726562 C 80.804688 148.542969 81.71875 148.316406 82.621094 148.042969 C 83.527344 147.769531 84.414062 147.453125 85.285156 147.09375 C 86.160156 146.734375 87.011719 146.332031 87.84375 145.886719 C 88.675781 145.445312 89.484375 144.960938 90.269531 144.4375 C 91.054688 143.914062 91.8125 143.351562 92.539062 142.753906 C 93.269531 142.15625 93.96875 141.523438 94.636719 140.855469 C 95.300781 140.191406 95.933594 139.492188 96.53125 138.761719 C 97.132812 138.03125 97.691406 137.277344 98.214844 136.492188 C 98.738281 135.707031 99.222656 134.898438 99.667969 134.066406 C 100.109375 133.234375 100.511719 132.378906 100.875 131.507812 C 101.234375 130.636719 101.550781 129.746094 101.824219 128.84375 C 102.09375 127.941406 102.324219 127.023438 102.507812 126.097656 C 102.6875 125.171875 102.824219 124.238281 102.917969 123.300781 C 103.007812 122.359375 103.050781 121.417969 103.050781 120.472656 L 102.875 20.125 L 100.3125 17.5625 L 100.492188 120.46875 C 100.5 122.195312 100.339844 123.90625 100.007812 125.601562 C 99.675781 127.296875 99.179688 128.9375 98.523438 130.535156 C 97.863281 132.128906 97.054688 133.644531 96.097656 135.074219 C 95.136719 136.507812 94.046875 137.832031 92.824219 139.050781 Z M 110.941406 157.167969 C 108.542969 159.582031 105.929688 161.730469 103.105469 163.625 C 100.277344 165.515625 97.289062 167.109375 94.144531 168.410156 C 91 169.707031 87.753906 170.683594 84.414062 171.335938 C 81.070312 171.992188 77.699219 172.3125 74.289062 172.296875 L 74.292969 174.851562 C 76.074219 174.851562 77.851562 174.769531 79.628906 174.597656 C 81.402344 174.425781 83.160156 174.167969 84.910156 173.824219 C 86.65625 173.476562 88.382812 173.046875 90.089844 172.535156 C 91.792969 172.019531 93.46875 171.421875 95.113281 170.742188 C 96.761719 170.066406 98.367188 169.304688 99.9375 168.46875 C 101.511719 167.632812 103.035156 166.71875 104.515625 165.730469 C 105.996094 164.742188 107.425781 163.683594 108.800781 162.554688 C 110.175781 161.429688 111.496094 160.234375 112.753906 158.976562 C 114.011719 157.71875 115.203125 156.402344 116.332031 155.023438 C 117.460938 153.648438 118.519531 152.21875 119.507812 150.738281 C 120.496094 149.257812 121.40625 147.734375 122.246094 146.164062 C 123.082031 144.59375 123.839844 142.984375 124.519531 141.339844 C 125.199219 139.691406 125.796875 138.015625 126.3125 136.3125 C 126.824219 134.605469 127.253906 132.878906 127.597656 131.132812 C 127.945312 129.386719 128.203125 127.625 128.375 125.851562 C 128.546875 124.078125 128.628906 122.296875 128.625 120.515625 L 128.496094 45.746094 L 125.9375 43.1875 L 126.074219 120.515625 C 126.085938 123.921875 125.769531 127.296875 125.113281 130.636719 C 124.460938 133.980469 123.484375 137.222656 122.183594 140.371094 C 120.886719 143.515625 119.289062 146.503906 117.398438 149.328125 C 115.507812 152.15625 113.355469 154.769531 110.941406 157.167969 Z M 106.40625 152.628906 C 104.304688 154.746094 102.015625 156.632812 99.539062 158.292969 C 97.058594 159.953125 94.445312 161.351562 91.6875 162.492188 C 88.929688 163.628906 86.089844 164.488281 83.160156 165.0625 C 80.230469 165.640625 77.273438 165.921875 74.289062 165.910156 L 74.289062 168.464844 C 75.863281 168.46875 77.433594 168.394531 79 168.242188 C 80.5625 168.089844 82.117188 167.863281 83.660156 167.558594 C 85.203125 167.253906 86.726562 166.875 88.230469 166.421875 C 89.734375 165.96875 91.214844 165.441406 92.667969 164.839844 C 94.121094 164.242188 95.539062 163.574219 96.925781 162.832031 C 98.3125 162.09375 99.65625 161.289062 100.964844 160.417969 C 102.269531 159.546875 103.53125 158.613281 104.746094 157.617188 C 105.960938 156.621094 107.121094 155.566406 108.234375 154.457031 C 109.34375 153.347656 110.398438 152.183594 111.390625 150.96875 C 112.386719 149.753906 113.320312 148.496094 114.195312 147.1875 C 115.066406 145.882812 115.871094 144.535156 116.609375 143.148438 C 117.347656 141.761719 118.019531 140.34375 118.617188 138.890625 C 119.21875 137.4375 119.742188 135.960938 120.199219 134.453125 C 120.652344 132.949219 121.03125 131.425781 121.335938 129.882812 C 121.640625 128.339844 121.867188 126.789062 122.019531 125.222656 C 122.167969 123.65625 122.242188 122.085938 122.242188 120.515625 L 122.097656 39.347656 L 119.53125 36.78125 L 119.6875 120.511719 C 119.699219 123.5 119.417969 126.457031 118.84375 129.386719 C 118.269531 132.316406 117.410156 135.160156 116.269531 137.914062 C 115.132812 140.671875 113.734375 143.289062 112.074219 145.769531 C 110.414062 148.246094 108.527344 150.535156 106.410156 152.636719 Z M 101.867188 148.09375 C 100.058594 149.910156 98.089844 151.53125 95.957031 152.953125 C 93.824219 154.378906 91.574219 155.578125 89.203125 156.558594 C 86.832031 157.535156 84.386719 158.269531 81.867188 158.761719 C 79.351562 159.25 76.808594 159.492188 74.238281 159.476562 L 74.269531 162.058594 C 75.632812 162.0625 76.996094 161.996094 78.351562 161.867188 C 79.707031 161.734375 81.054688 161.539062 82.390625 161.273438 C 83.730469 161.011719 85.050781 160.683594 86.355469 160.289062 C 87.660156 159.894531 88.941406 159.4375 90.199219 158.917969 C 91.457031 158.398438 92.6875 157.820312 93.890625 157.179688 C 95.09375 156.539062 96.257812 155.839844 97.390625 155.082031 C 98.523438 154.328125 99.617188 153.519531 100.671875 152.65625 C 101.722656 151.792969 102.730469 150.878906 103.691406 149.917969 C 104.65625 148.953125 105.570312 147.945312 106.433594 146.894531 C 107.296875 145.839844 108.105469 144.75 108.859375 143.617188 C 109.617188 142.484375 110.3125 141.316406 110.953125 140.113281 C 111.597656 138.914062 112.175781 137.683594 112.695312 136.421875 C 113.214844 135.164062 113.671875 133.882812 114.066406 132.578125 C 114.457031 131.273438 114.789062 129.953125 115.050781 128.617188 C 115.316406 127.277344 115.511719 125.929688 115.644531 124.574219 C 115.773438 123.21875 115.839844 121.855469 115.835938 120.492188 L 115.6875 32.9375 L 113.125 30.375 L 113.28125 120.503906 C 113.292969 123.070312 113.050781 125.613281 112.558594 128.128906 C 112.066406 130.648438 111.328125 133.089844 110.351562 135.457031 C 109.371094 137.828125 108.171875 140.078125 106.746094 142.207031 C 105.320312 144.335938 103.699219 146.300781 101.882812 148.109375 Z M 74.257812 153.109375 L 74.261719 155.667969 C 75.414062 155.667969 76.566406 155.613281 77.714844 155.5 C 78.859375 155.386719 80 155.21875 81.128906 154.992188 C 82.261719 154.769531 83.378906 154.492188 84.480469 154.15625 C 85.582031 153.824219 86.667969 153.433594 87.730469 152.996094 C 88.796875 152.554688 89.835938 152.0625 90.851562 151.519531 C 91.871094 150.976562 92.855469 150.386719 93.8125 149.746094 C 94.773438 149.109375 95.695312 148.421875 96.585938 147.691406 C 97.476562 146.960938 98.328125 146.191406 99.144531 145.375 C 99.957031 144.5625 100.730469 143.710938 101.460938 142.820312 C 102.191406 141.929688 102.875 141.003906 103.515625 140.046875 C 104.152344 139.089844 104.746094 138.101562 105.289062 137.085938 C 105.832031 136.070312 106.320312 135.03125 106.761719 133.964844 C 107.203125 132.902344 107.589844 131.816406 107.921875 130.714844 C 108.257812 129.609375 108.535156 128.496094 108.761719 127.363281 C 108.984375 126.234375 109.152344 125.09375 109.265625 123.945312 C 109.378906 122.796875 109.433594 121.648438 109.433594 120.496094 L 109.269531 26.550781 L 106.710938 23.988281 L 106.886719 120.480469 C 106.890625 121.550781 106.835938 122.617188 106.734375 123.683594 C 106.628906 124.75 106.476562 125.804688 106.265625 126.855469 C 106.058594 127.902344 105.800781 128.941406 105.492188 129.964844 C 105.183594 130.988281 104.824219 131.992188 104.414062 132.980469 C 104.007812 133.96875 103.550781 134.933594 103.046875 135.878906 C 102.546875 136.820312 101.996094 137.738281 101.402344 138.625 C 100.8125 139.515625 100.175781 140.371094 99.496094 141.199219 C 98.820312 142.023438 98.101562 142.816406 97.347656 143.570312 C 96.59375 144.328125 95.800781 145.042969 94.976562 145.722656 C 94.148438 146.398438 93.292969 147.035156 92.402344 147.628906 C 91.515625 148.21875 90.597656 148.769531 89.65625 149.273438 C 88.710938 149.773438 87.746094 150.230469 86.757812 150.640625 C 85.769531 151.046875 84.765625 151.40625 83.742188 151.714844 C 82.71875 152.023438 81.679688 152.28125 80.632812 152.492188 C 79.582031 152.699219 78.523438 152.855469 77.460938 152.957031 C 76.394531 153.0625 75.328125 153.113281 74.257812 153.109375 Z M 74.257812 153.109375 " clip-rule="nonzero"/></clipPath></defs><g clip-path="url(#df22eaab08)"><g clip-path="url(#89cfc91731)"><g clip-path="url(#d0e2fc58d8)"><g clip-path="url(#7b8ef1a80f)"><path fill="url(#9b2e2e3b5c)" d="M 19.746094 65.714844 L 19.976562 174.894531 L 89.164062 175.039062 L 88.933594 65.859375 Z M 19.746094 65.714844 " fill-rule="nonzero"/></g></g></g></g><g clip-path="url(#06f391e8cd)"><g clip-path="url(#b08eee70fb)"><g clip-path="url(#b9af9467b4)"><g clip-path="url(#f9c7a26b2f)"><path fill="url(#a987071028)" d="M 126.027344 65.835938 L 125.984375 106.980469 L 183.910156 106.917969 L 183.953125 65.773438 Z M 126.027344 65.835938 " fill-rule="nonzero"/></g></g></g></g><g clip-path="url(#8d1b5ea9b1)"><g clip-path="url(#5c294a616f)"><g clip-path="url(#4c8b8ee1e1)"><g clip-path="url(#cfdbdcdef9)"><path fill="#0038ff" d="M 101.421875 202.0625 L 213.679688 89.800781 L 101.421875 -22.457031 L -10.835938 89.800781 Z M 101.421875 202.0625 " fill-opacity="1" fill-rule="nonzero"/></g></g></g></g><g fill="#f4f4f4" fill-opacity="1"><g transform="translate(186.870864, 90.81288)"><g><path d="M 1.75 0 L 15.058594 0 L 15.058594 -2.488281 L 1.75 -2.488281 Z M 4.726562 -22.027344 L 18.035156 -22.027344 L 15.410156 -24.515625 L 4.726562 -24.515625 Z M 15.410156 0 L 18.035156 -2.488281 L 18.035156 -21.679688 L 15.410156 -21.679688 Z M 1.75 -2.835938 L 4.378906 -2.835938 L 4.378906 -24.515625 L 1.75 -24.515625 Z M 1.75 -2.835938 "/></g></g></g><g fill="#f4f4f4" fill-opacity="1"><g transform="translate(206.654915, 90.81288)"><g><path d="M 16.390625 -2.488281 L 4.726562 -2.488281 L 4.726562 0 L 13.695312 0 Z M 1.75 -15.023438 L 13.414062 -15.023438 L 13.414062 -17.511719 L 4.378906 -17.511719 Z M 4.378906 -14.675781 L 1.75 -14.675781 L 1.75 -2.625 L 4.378906 0 Z M 13.761719 -9.804688 L 16.390625 -9.804688 L 16.390625 -14.882812 L 13.761719 -17.511719 Z M 16.390625 -9.457031 L 4.726562 -9.457031 L 4.726562 -6.96875 L 13.695312 -6.96875 Z M 16.390625 -9.457031 "/></g></g></g><g fill="#f4f4f4" fill-opacity="1"><g transform="translate(224.79321, 90.81288)"><g><path d="M 13.796875 0 L 16.425781 0 L 16.425781 -15.023438 L 13.796875 -17.511719 Z M 4.378906 -17.511719 L 1.75 -17.511719 L 1.75 0 L 4.378906 0 Z M 4.726562 -15.023438 L 13.449219 -15.023438 L 13.449219 -17.511719 L 7.355469 -17.511719 Z M 4.726562 -15.023438 "/></g></g></g><g fill="#f4f4f4" fill-opacity="1"><g transform="translate(242.966521, 90.81288)"><g><path d="M 13.726562 -2.488281 L 5.8125 -2.488281 L 8.441406 0 L 13.726562 0 Z M 8.441406 -14.675781 L 5.8125 -14.675781 L 5.8125 -2.835938 L 8.441406 -2.835938 Z M 13.9375 -17.511719 L 1.402344 -17.511719 L 1.402344 -15.023438 L 13.9375 -15.023438 Z M 8.441406 -24.515625 L 5.8125 -24.515625 L 5.8125 -17.859375 L 8.441406 -17.859375 Z M 8.441406 -24.515625 "/></g></g></g><g fill="#f4f4f4" fill-opacity="1"><g transform="translate(258.30354, 90.81288)"><g><path d="M 11.523438 -21.679688 L 8.894531 -21.679688 L 8.894531 0 L 11.523438 0 Z M 1.75 -22.027344 L 18.839844 -22.027344 L 18.839844 -24.515625 L 1.75 -24.515625 Z M 1.75 -22.027344 "/></g></g></g><g fill="#f4f4f4" fill-opacity="1"><g transform="translate(278.892962, 90.81288)"><g><path d="M 4.027344 -17.511719 L 1.402344 -17.511719 L 1.402344 0 L 4.027344 0 Z M 4.378906 -15.023438 L 13.097656 -15.023438 L 13.097656 -17.511719 L 7.003906 -17.511719 Z M 4.378906 -15.023438 "/></g></g></g><g fill="#f4f4f4" fill-opacity="1"><g transform="translate(293.389593, 90.81288)"><g><path d="M 1.75 -15.023438 L 13.414062 -15.023438 L 13.414062 -17.511719 L 4.378906 -17.511719 Z M 16.390625 -2.488281 L 4.726562 -2.488281 L 4.726562 0 L 13.695312 0 Z M 13.761719 -2.835938 L 16.390625 -2.835938 L 16.390625 -14.882812 L 13.761719 -17.511719 Z M 4.378906 -8.371094 L 1.75 -8.371094 L 1.75 -2.625 L 4.378906 0 Z M 1.75 -8.71875 L 13.414062 -8.71875 L 13.414062 -11.207031 L 4.378906 -11.207031 Z M 1.75 -8.71875 "/></g></g></g><g fill="#f4f4f4" fill-opacity="1"><g transform="translate(312.543361, 90.81288)"><g><path d="M 1.75 -15.023438 L 16.25 -15.023438 L 13.761719 -17.511719 L 4.378906 -17.511719 Z M 16.390625 -2.488281 L 4.726562 -2.488281 L 4.726562 0 L 13.695312 0 Z M 4.378906 -14.675781 L 1.75 -14.675781 L 1.75 -2.625 L 4.378906 0 Z M 4.378906 -14.675781 "/></g></g></g><g fill="#f4f4f4" fill-opacity="1"><g transform="translate(330.681655, 90.81288)"><g><path d="M 1.75 0 L 4.378906 0 L 4.378906 -24.515625 L 1.75 -24.515625 Z M 7.003906 -10.015625 L 15.757812 -16.707031 L 14.113281 -18.667969 L 5.007812 -11.730469 Z M 4.796875 -8.019531 L 13.832031 0.0351562 L 15.65625 -1.890625 L 4.796875 -11.558594 Z M 4.796875 -8.019531 "/></g></g></g><g fill="#f4f4f4" fill-opacity="1"><g transform="translate(348.189665, 90.81288)"><g><path d="M 14.429688 -17.511719 L 4.726562 -17.511719 L 4.726562 -15.023438 L 14.429688 -15.023438 Z M 4.378906 -17.511719 L 1.75 -15.023438 L 1.75 -10.507812 L 4.378906 -9.421875 Z M 2.453125 0 L 12.152344 0 L 12.152344 -2.488281 L 2.453125 -2.488281 Z M 12.503906 0 L 15.128906 -2.488281 L 15.128906 -4.519531 L 12.503906 -5.636719 Z M 15.128906 -7.53125 L 4.726562 -12.011719 L 4.726562 -9.351562 L 15.128906 -4.867188 Z M 15.128906 -7.53125 "/></g></g></g><g fill="#f4f4f4" fill-opacity="1"><g transform="translate(183.501767, 106.042501)"><g><path d="M 0.636719 0 L 2.890625 0 C 4.964844 0 6.347656 -1.195312 6.347656 -3.136719 C 6.347656 -5.078125 4.953125 -6.277344 2.890625 -6.277344 L 0.636719 -6.277344 Z M 1.71875 -0.867188 L 1.71875 -5.414062 L 2.890625 -5.414062 C 4.273438 -5.414062 5.230469 -4.554688 5.230469 -3.136719 C 5.230469 -1.71875 4.289062 -0.867188 2.890625 -0.867188 Z M 1.71875 -0.867188 "/></g></g></g><g fill="#f4f4f4" fill-opacity="1"><g transform="translate(192.117743, 106.042501)"><g><path d="M 0.636719 0 L 1.753906 0 L 1.753906 -6.277344 L 0.636719 -6.277344 Z M 0.636719 0 "/></g></g></g><g fill="#f4f4f4" fill-opacity="1"><g transform="translate(196.390263, 106.042501)"><g><path d="M 3.820312 0.1875 C 5.851562 0.1875 7.214844 -1.285156 7.109375 -3.386719 L 3.136719 -3.386719 L 3.136719 -2.6875 L 6.027344 -2.6875 C 5.949219 -1.542969 5.042969 -0.746094 3.847656 -0.746094 C 2.492188 -0.746094 1.507812 -1.765625 1.507812 -3.136719 C 1.507812 -4.53125 2.480469 -5.523438 3.8125 -5.511719 C 4.75 -5.511719 5.585938 -4.929688 5.789062 -4.128906 L 6.816406 -4.324219 C 6.550781 -5.558594 5.292969 -6.453125 3.820312 -6.453125 C 1.824219 -6.453125 0.390625 -5.089844 0.390625 -3.136719 C 0.390625 -1.195312 1.824219 0.1875 3.820312 0.1875 Z M 3.820312 0.1875 "/></g></g></g><g fill="#f4f4f4" fill-opacity="1"><g transform="translate(205.777423, 106.042501)"><g><path d="M 0.636719 0 L 1.753906 0 L 1.753906 -6.277344 L 0.636719 -6.277344 Z M 0.636719 0 "/></g></g></g><g fill="#f4f4f4" fill-opacity="1"><g transform="translate(210.049942, 106.042501)"><g><path d="M 2.234375 0 L 3.351562 0 L 3.351562 -5.34375 L 5.453125 -5.34375 L 5.453125 -6.277344 L 0.140625 -6.277344 L 0.140625 -5.34375 L 2.234375 -5.34375 Z M 2.234375 0 "/></g></g></g><g fill="#f4f4f4" fill-opacity="1"><g transform="translate(217.513572, 106.042501)"><g><path d="M 0.636719 0 L 1.753906 0 L 1.753906 -6.277344 L 0.636719 -6.277344 Z M 0.636719 0 "/></g></g></g><g fill="#f4f4f4" fill-opacity="1"><g transform="translate(221.786092, 106.042501)"><g><path d="M 0.292969 0 L 5.300781 0 L 5.300781 -0.902344 L 1.824219 -0.902344 L 1.824219 -0.976562 L 5.210938 -5.671875 L 5.210938 -6.277344 L 0.34375 -6.277344 L 0.34375 -5.378906 L 3.722656 -5.378906 L 3.722656 -5.308594 L 0.292969 -0.613281 Z M 0.292969 0 "/></g></g></g><g fill="#f4f4f4" fill-opacity="1"><g transform="translate(229.258581, 106.042501)"><g><path d="M 0.636719 0 L 5.28125 0 L 5.28125 -0.902344 L 1.71875 -0.902344 L 1.71875 -2.835938 L 4.9375 -2.835938 L 4.9375 -3.597656 L 1.71875 -3.597656 L 1.71875 -5.378906 L 5.195312 -5.378906 L 5.195312 -6.277344 L 0.636719 -6.277344 Z M 0.636719 0 "/></g></g></g><g fill="#f4f4f4" fill-opacity="1"><g transform="translate(236.766533, 106.042501)"><g/></g></g><g fill="#f4f4f4" fill-opacity="1"><g transform="translate(240.826318, 106.042501)"><g><path d="M 0.132812 0 L 1.285156 0 L 1.753906 -1.304688 L 4.546875 -1.304688 L 5.015625 0 L 6.179688 0 L 3.980469 -6.277344 L 2.332031 -6.277344 Z M 1.996094 -2.136719 L 3.109375 -5.308594 L 3.191406 -5.308594 L 4.308594 -2.136719 Z M 1.996094 -2.136719 "/></g></g></g><g fill="#f4f4f4" fill-opacity="1"><g transform="translate(249.007942, 106.042501)"><g><path d="M 3.253906 0.167969 C 4.859375 0.167969 5.9375 -0.894531 5.9375 -2.554688 L 5.9375 -6.277344 L 4.820312 -6.277344 L 4.820312 -2.589844 C 4.820312 -1.480469 4.210938 -0.761719 3.253906 -0.761719 C 2.304688 -0.761719 1.691406 -1.472656 1.691406 -2.589844 L 1.691406 -6.277344 L 0.566406 -6.277344 L 0.566406 -2.554688 C 0.566406 -0.894531 1.648438 0.167969 3.253906 0.167969 Z M 3.253906 0.167969 "/></g></g></g><g fill="#f4f4f4" fill-opacity="1"><g transform="translate(257.393441, 106.042501)"><g><path d="M 2.234375 0 L 3.351562 0 L 3.351562 -5.34375 L 5.453125 -5.34375 L 5.453125 -6.277344 L 0.140625 -6.277344 L 0.140625 -5.34375 L 2.234375 -5.34375 Z M 2.234375 0 "/></g></g></g><g fill="#f4f4f4" fill-opacity="1"><g transform="translate(264.857072, 106.042501)"><g><path d="M 3.8125 0.167969 C 5.832031 0.167969 7.242188 -1.160156 7.242188 -3.136719 C 7.242188 -5.113281 5.832031 -6.453125 3.8125 -6.453125 C 1.789062 -6.453125 0.382812 -5.113281 0.382812 -3.136719 C 0.382812 -1.160156 1.789062 0.167969 3.8125 0.167969 Z M 3.8125 -0.761719 C 2.464844 -0.761719 1.507812 -1.746094 1.507812 -3.136719 C 1.507812 -4.539062 2.464844 -5.511719 3.8125 -5.511719 C 5.167969 -5.511719 6.125 -4.539062 6.125 -3.136719 C 6.125 -1.738281 5.167969 -0.761719 3.8125 -0.761719 Z M 3.8125 -0.761719 "/></g></g></g><g fill="#f4f4f4" fill-opacity="1"><g transform="translate(274.368327, 106.042501)"><g><path d="M 0.628906 0 L 1.710938 0 L 1.710938 -4.761719 L 1.789062 -4.761719 L 3.757812 0 L 4.671875 0 L 6.648438 -4.769531 L 6.71875 -4.769531 L 6.71875 0 L 7.800781 0 L 7.800781 -6.277344 L 6.265625 -6.277344 L 4.253906 -1.339844 L 4.183594 -1.339844 L 2.144531 -6.277344 L 0.628906 -6.277344 Z M 0.628906 0 "/></g></g></g><g fill="#f4f4f4" fill-opacity="1"><g transform="translate(284.68623, 106.042501)"><g><path d="M 0.132812 0 L 1.285156 0 L 1.753906 -1.304688 L 4.546875 -1.304688 L 5.015625 0 L 6.179688 0 L 3.980469 -6.277344 L 2.332031 -6.277344 Z M 1.996094 -2.136719 L 3.109375 -5.308594 L 3.191406 -5.308594 L 4.308594 -2.136719 Z M 1.996094 -2.136719 "/></g></g></g><g fill="#f4f4f4" fill-opacity="1"><g transform="translate(292.86786, 106.042501)"><g><path d="M 2.234375 0 L 3.351562 0 L 3.351562 -5.34375 L 5.453125 -5.34375 L 5.453125 -6.277344 L 0.140625 -6.277344 L 0.140625 -5.34375 L 2.234375 -5.34375 Z M 2.234375 0 "/></g></g></g><g fill="#f4f4f4" fill-opacity="1"><g transform="translate(300.331496, 106.042501)"><g><path d="M 0.636719 0 L 5.28125 0 L 5.28125 -0.902344 L 1.71875 -0.902344 L 1.71875 -2.835938 L 4.9375 -2.835938 L 4.9375 -3.597656 L 1.71875 -3.597656 L 1.71875 -5.378906 L 5.195312 -5.378906 L 5.195312 -6.277344 L 0.636719 -6.277344 Z M 0.636719 0 "/></g></g></g><g fill="#f4f4f4" fill-opacity="1"><g transform="translate(307.83945, 106.042501)"><g/></g></g><g fill="#f4f4f4" fill-opacity="1"><g transform="translate(311.899241, 106.042501)"><g><path d="M 3.128906 0.167969 C 4.75 0.167969 5.816406 -0.585938 5.816406 -1.765625 C 5.816406 -3.183594 4.449219 -3.394531 3.332031 -3.5625 C 2.445312 -3.695312 1.640625 -3.828125 1.640625 -4.574219 C 1.640625 -5.183594 2.179688 -5.621094 3.074219 -5.621094 C 4.007812 -5.621094 4.609375 -5.132812 4.609375 -4.324219 L 5.636719 -4.324219 C 5.628906 -5.601562 4.609375 -6.453125 3.03125 -6.453125 C 1.496094 -6.453125 0.515625 -5.671875 0.515625 -4.503906 C 0.515625 -3.058594 1.921875 -2.878906 3.03125 -2.722656 C 3.898438 -2.589844 4.699219 -2.464844 4.699219 -1.703125 C 4.699219 -1.074219 4.09375 -0.664062 3.171875 -0.664062 C 2.136719 -0.664062 1.496094 -1.1875 1.496094 -2.039062 L 0.441406 -2.03125 C 0.441406 -0.710938 1.507812 0.167969 3.128906 0.167969 Z M 3.128906 0.167969 "/></g></g></g><g fill="#f4f4f4" fill-opacity="1"><g transform="translate(320.036552, 106.042501)"><g><path d="M 3.253906 0.167969 C 4.859375 0.167969 5.9375 -0.894531 5.9375 -2.554688 L 5.9375 -6.277344 L 4.820312 -6.277344 L 4.820312 -2.589844 C 4.820312 -1.480469 4.210938 -0.761719 3.253906 -0.761719 C 2.304688 -0.761719 1.691406 -1.472656 1.691406 -2.589844 L 1.691406 -6.277344 L 0.566406 -6.277344 L 0.566406 -2.554688 C 0.566406 -0.894531 1.648438 0.167969 3.253906 0.167969 Z M 3.253906 0.167969 "/></g></g></g><g fill="#f4f4f4" fill-opacity="1"><g transform="translate(328.422056, 106.042501)"><g><path d="M 3.742188 0.167969 C 5.363281 0.167969 6.65625 -0.816406 6.859375 -2.171875 L 5.816406 -2.304688 C 5.628906 -1.4375 4.769531 -0.761719 3.777344 -0.761719 C 2.4375 -0.761719 1.507812 -1.738281 1.507812 -3.136719 C 1.507812 -4.546875 2.429688 -5.511719 3.777344 -5.511719 C 4.761719 -5.511719 5.621094 -4.832031 5.804688 -3.9375 L 6.851562 -4.058594 C 6.628906 -5.441406 5.335938 -6.453125 3.742188 -6.453125 C 1.789062 -6.453125 0.390625 -5.089844 0.390625 -3.136719 C 0.390625 -1.195312 1.789062 0.167969 3.742188 0.167969 Z M 3.742188 0.167969 "/></g></g></g><g fill="#f4f4f4" fill-opacity="1"><g transform="translate(337.552155, 106.042501)"><g><path d="M 3.742188 0.167969 C 5.363281 0.167969 6.65625 -0.816406 6.859375 -2.171875 L 5.816406 -2.304688 C 5.628906 -1.4375 4.769531 -0.761719 3.777344 -0.761719 C 2.4375 -0.761719 1.507812 -1.738281 1.507812 -3.136719 C 1.507812 -4.546875 2.429688 -5.511719 3.777344 -5.511719 C 4.761719 -5.511719 5.621094 -4.832031 5.804688 -3.9375 L 6.851562 -4.058594 C 6.628906 -5.441406 5.335938 -6.453125 3.742188 -6.453125 C 1.789062 -6.453125 0.390625 -5.089844 0.390625 -3.136719 C 0.390625 -1.195312 1.789062 0.167969 3.742188 0.167969 Z M 3.742188 0.167969 "/></g></g></g><g fill="#f4f4f4" fill-opacity="1"><g transform="translate(346.682254, 106.042501)"><g><path d="M 0.636719 0 L 5.28125 0 L 5.28125 -0.902344 L 1.71875 -0.902344 L 1.71875 -2.835938 L 4.9375 -2.835938 L 4.9375 -3.597656 L 1.71875 -3.597656 L 1.71875 -5.378906 L 5.195312 -5.378906 L 5.195312 -6.277344 L 0.636719 -6.277344 Z M 0.636719 0 "/></g></g></g><g fill="#f4f4f4" fill-opacity="1"><g transform="translate(354.190209, 106.042501)"><g><path d="M 0.636719 0 L 5.28125 0 L 5.28125 -0.902344 L 1.71875 -0.902344 L 1.71875 -2.835938 L 4.9375 -2.835938 L 4.9375 -3.597656 L 1.71875 -3.597656 L 1.71875 -5.378906 L 5.195312 -5.378906 L 5.195312 -6.277344 L 0.636719 -6.277344 Z M 0.636719 0 "/></g></g></g><g fill="#f4f4f4" fill-opacity="1"><g transform="translate(361.698164, 106.042501)"><g><path d="M 0.636719 0 L 2.890625 0 C 4.964844 0 6.347656 -1.195312 6.347656 -3.136719 C 6.347656 -5.078125 4.953125 -6.277344 2.890625 -6.277344 L 0.636719 -6.277344 Z M 1.71875 -0.867188 L 1.71875 -5.414062 L 2.890625 -5.414062 C 4.273438 -5.414062 5.230469 -4.554688 5.230469 -3.136719 C 5.230469 -1.71875 4.289062 -0.867188 2.890625 -0.867188 Z M 1.71875 -0.867188 "/></g></g></g></svg>